<svg xmlns="http://www.w3.org/2000/svg" width="800" height="520" viewBox="0 0 800 520" id="chartlet-bfdf195c10301b6f" role="img" aria-labelledby="chartlet-bfdf195c10301b6f-title chartlet-bfdf195c10301b6f-description" class="chartlet-root chartlet-multiples"><title id="chartlet-bfdf195c10301b6f-title">Indicators of growth since 1900</title><desc id="chartlet-bfdf195c10301b6f-description">Small multiples of 4 panels (Population (millions), Primary energy (PWh), Water withdrawal (km³), Fertilizer use (Mt)) with a value axis of their own, each from 1900 to 2025.</desc><style>.chartlet-root{--chartlet-text:#172033;--chartlet-muted:#344054;--chartlet-grid:#d9dee8;--chartlet-zero:#667085;--chartlet-accent:#2563eb;--chartlet-background:#fff;--chartlet-color-1:#2563eb;--chartlet-color-2:#c2410c;--chartlet-color-3:#475569;--chartlet-color-4:#111827;max-width:100%;height:auto;font-family:Inter,ui-sans-serif,system-ui,sans-serif;color:var(--chartlet-text)}#chartlet-bfdf195c10301b6f .chartlet-title{font-size:22px;font-weight:650;fill:var(--chartlet-text)}#chartlet-bfdf195c10301b6f .chartlet-label,#chartlet-bfdf195c10301b6f .chartlet-tick,#chartlet-bfdf195c10301b6f .chartlet-value,#chartlet-bfdf195c10301b6f .chartlet-value-inverse,#chartlet-bfdf195c10301b6f .chartlet-axis-title{font-size:12px;fill:var(--chartlet-muted)}#chartlet-bfdf195c10301b6f .chartlet-value,#chartlet-bfdf195c10301b6f .chartlet-value-inverse{font-weight:600}#chartlet-bfdf195c10301b6f .chartlet-value{fill:var(--chartlet-text)}#chartlet-bfdf195c10301b6f .chartlet-value-inverse{fill:var(--chartlet-background)}#chartlet-bfdf195c10301b6f .chartlet-axis-title{font-weight:600}#chartlet-bfdf195c10301b6f .chartlet-grid{stroke:var(--chartlet-grid);stroke-width:1}#chartlet-bfdf195c10301b6f .chartlet-zero{stroke:var(--chartlet-zero);stroke-width:1.5}#chartlet-bfdf195c10301b6f .chartlet-bar,#chartlet-bfdf195c10301b6f .chartlet-point{fill:var(--chartlet-accent)}#chartlet-bfdf195c10301b6f .chartlet-line{fill:none;stroke:var(--chartlet-accent);stroke-width:3;stroke-linecap:round;stroke-linejoin:round}#chartlet-bfdf195c10301b6f .chartlet-background{fill:var(--chartlet-background)}#chartlet-bfdf195c10301b6f .chartlet-legend{font-size:12px;fill:var(--chartlet-muted)}#chartlet-bfdf195c10301b6f .chartlet-line-series-1{stroke:var(--chartlet-color-1)}#chartlet-bfdf195c10301b6f .chartlet-line-series-2{stroke:var(--chartlet-color-2)}#chartlet-bfdf195c10301b6f .chartlet-line-series-3{stroke:var(--chartlet-color-3)}#chartlet-bfdf195c10301b6f .chartlet-line-series-4{stroke:var(--chartlet-color-4)}#chartlet-bfdf195c10301b6f .chartlet-hit{fill:transparent;stroke:none}#chartlet-bfdf195c10301b6f .chartlet-band{stroke:none;fill-opacity:.18}#chartlet-bfdf195c10301b6f .chartlet-band-series-1{fill:var(--chartlet-color-1)}#chartlet-bfdf195c10301b6f .chartlet-band-series-2{fill:var(--chartlet-color-2)}#chartlet-bfdf195c10301b6f .chartlet-band-series-3{fill:var(--chartlet-color-3)}#chartlet-bfdf195c10301b6f .chartlet-band-series-4{fill:var(--chartlet-color-4)}#chartlet-bfdf195c10301b6f .chartlet-hatch{stroke:none}#chartlet-bfdf195c10301b6f .chartlet-hatch-line{stroke-width:1.2;opacity:.75}#chartlet-bfdf195c10301b6f .chartlet-line-modeled{stroke-dasharray:7 5}#chartlet-bfdf195c10301b6f .chartlet-line-thin{stroke-width:1}#chartlet-bfdf195c10301b6f .chartlet-point-series-2{fill:var(--chartlet-color-2)}#chartlet-bfdf195c10301b6f .chartlet-point-series-3{fill:var(--chartlet-color-3)}#chartlet-bfdf195c10301b6f .chartlet-point-series-4{fill:var(--chartlet-color-4)}#chartlet-bfdf195c10301b6f .chartlet-rule{fill:none;stroke:var(--chartlet-zero);stroke-width:1.5;stroke-dasharray:5 4}#chartlet-bfdf195c10301b6f .chartlet-rule-label{font-size:12px;font-weight:600;fill:var(--chartlet-text);paint-order:stroke;stroke:var(--chartlet-background);stroke-width:3px;stroke-linejoin:round}#chartlet-bfdf195c10301b6f.chartlet-multiples .chartlet-line{stroke-width:2}#chartlet-bfdf195c10301b6f .chartlet-panel-title{font-size:13px;font-weight:650;fill:var(--chartlet-text)}</style><text x="16" y="30" text-anchor="start" class="chartlet-title">Indicators of growth since 1900</text><text x="60" y="72" text-anchor="start" class="chartlet-panel-title">Population (millions)</text><line x1="60" y1="253" x2="388" y2="253" class="chartlet-zero"/><text x="50" y="257" text-anchor="end" class="chartlet-tick">0</text><line x1="60" y1="219.2" x2="388" y2="219.2" class="chartlet-grid"/><text x="50" y="223.2" text-anchor="end" class="chartlet-tick">2,000</text><line x1="60" y1="185.4" x2="388" y2="185.4" class="chartlet-grid"/><text x="50" y="189.4" text-anchor="end" class="chartlet-tick">4,000</text><line x1="60" y1="151.6" x2="388" y2="151.6" class="chartlet-grid"/><text x="50" y="155.6" text-anchor="end" class="chartlet-tick">6,000</text><line x1="60" y1="117.8" x2="388" y2="117.8" class="chartlet-grid"/><text x="50" y="121.8" text-anchor="end" class="chartlet-tick">8,000</text><line x1="60" y1="84" x2="388" y2="84" class="chartlet-grid"/><text x="50" y="88" text-anchor="end" class="chartlet-tick">10,000</text><line x1="66" y1="84" x2="66" y2="253" class="chartlet-grid"/><text x="66" y="277" text-anchor="middle" class="chartlet-tick">1900</text><line x1="192.397" y1="84" x2="192.397" y2="253" class="chartlet-grid"/><text x="192.397" y="277" text-anchor="middle" class="chartlet-tick">1950</text><line x1="318.794" y1="84" x2="318.794" y2="253" class="chartlet-grid"/><text x="318.794" y="277" text-anchor="middle" class="chartlet-tick">2000</text><polyline points="66,225.115 129.199,219.2 192.397,210.75 255.596,184.386 318.794,149.065 382,116.11" class="chartlet-line chartlet-line-series-1"/><circle cx="66" cy="225.115" r="2.5" class="chartlet-point"><title>1900 – Population (millions) · Value: 1,650</title></circle><circle cx="129.199" cy="219.2" r="2.5" class="chartlet-point"><title>1925 – Population (millions) · Value: 2,000</title></circle><circle cx="192.397" cy="210.75" r="2.5" class="chartlet-point"><title>1950 – Population (millions) · Value: 2,500</title></circle><circle cx="255.596" cy="184.386" r="2.5" class="chartlet-point"><title>1975 – Population (millions) · Value: 4,060</title></circle><circle cx="318.794" cy="149.065" r="2.5" class="chartlet-point"><title>2000 – Population (millions) · Value: 6,150</title></circle><circle cx="382" cy="116.11" r="2.5" class="chartlet-point"><title>2025 – Population (millions) · Value: 8,100</title></circle><text x="444" y="72" text-anchor="start" class="chartlet-panel-title">Primary energy (PWh)</text><line x1="444" y1="253" x2="772" y2="253" class="chartlet-zero"/><text x="434" y="257" text-anchor="end" class="chartlet-tick">0</text><line x1="444" y1="210.75" x2="772" y2="210.75" class="chartlet-grid"/><text x="434" y="214.75" text-anchor="end" class="chartlet-tick">50</text><line x1="444" y1="168.5" x2="772" y2="168.5" class="chartlet-grid"/><text x="434" y="172.5" text-anchor="end" class="chartlet-tick">100</text><line x1="444" y1="126.25" x2="772" y2="126.25" class="chartlet-grid"/><text x="434" y="130.25" text-anchor="end" class="chartlet-tick">150</text><line x1="444" y1="84" x2="772" y2="84" class="chartlet-grid"/><text x="434" y="88" text-anchor="end" class="chartlet-tick">200</text><line x1="450" y1="84" x2="450" y2="253" class="chartlet-grid"/><text x="450" y="277" text-anchor="middle" class="chartlet-tick">1900</text><line x1="576.397" y1="84" x2="576.397" y2="253" class="chartlet-grid"/><text x="576.397" y="277" text-anchor="middle" class="chartlet-tick">1950</text><line x1="702.794" y1="84" x2="702.794" y2="253" class="chartlet-grid"/><text x="702.794" y="277" text-anchor="middle" class="chartlet-tick">2000</text><polyline points="450,242.86 513.199,236.1 576.397,229.34 639.596,189.625 702.794,154.135 766,100.9" class="chartlet-line chartlet-line-series-1"/><circle cx="450" cy="242.86" r="2.5" class="chartlet-point"><title>1900 – Primary energy (PWh) · Value: 12</title></circle><circle cx="513.199" cy="236.1" r="2.5" class="chartlet-point"><title>1925 – Primary energy (PWh) · Value: 20</title></circle><circle cx="576.397" cy="229.34" r="2.5" class="chartlet-point"><title>1950 – Primary energy (PWh) · Value: 28</title></circle><circle cx="639.596" cy="189.625" r="2.5" class="chartlet-point"><title>1975 – Primary energy (PWh) · Value: 75</title></circle><circle cx="702.794" cy="154.135" r="2.5" class="chartlet-point"><title>2000 – Primary energy (PWh) · Value: 117</title></circle><circle cx="766" cy="100.9" r="2.5" class="chartlet-point"><title>2025 – Primary energy (PWh) · Value: 180</title></circle><text x="60" y="299" text-anchor="start" class="chartlet-panel-title">Water withdrawal (km³)</text><line x1="60" y1="480" x2="388" y2="480" class="chartlet-zero"/><text x="50" y="484" text-anchor="end" class="chartlet-tick">0</text><line x1="60" y1="446.2" x2="388" y2="446.2" class="chartlet-grid"/><text x="50" y="450.2" text-anchor="end" class="chartlet-tick">1,000</text><line x1="60" y1="412.4" x2="388" y2="412.4" class="chartlet-grid"/><text x="50" y="416.4" text-anchor="end" class="chartlet-tick">2,000</text><line x1="60" y1="378.6" x2="388" y2="378.6" class="chartlet-grid"/><text x="50" y="382.6" text-anchor="end" class="chartlet-tick">3,000</text><line x1="60" y1="344.8" x2="388" y2="344.8" class="chartlet-grid"/><text x="50" y="348.8" text-anchor="end" class="chartlet-tick">4,000</text><line x1="60" y1="311" x2="388" y2="311" class="chartlet-grid"/><text x="50" y="315" text-anchor="end" class="chartlet-tick">5,000</text><line x1="66" y1="311" x2="66" y2="480" class="chartlet-grid"/><text x="66" y="504" text-anchor="middle" class="chartlet-tick">1900</text><line x1="192.397" y1="311" x2="192.397" y2="480" class="chartlet-grid"/><text x="192.397" y="504" text-anchor="middle" class="chartlet-tick">1950</text><line x1="318.794" y1="311" x2="318.794" y2="480" class="chartlet-grid"/><text x="318.794" y="504" text-anchor="middle" class="chartlet-tick">2000</text><polyline points="66,460.396 129.199,452.96 192.397,436.06 255.596,392.12 318.794,354.94 382,341.42" class="chartlet-line chartlet-line-series-1"/><circle cx="66" cy="460.396" r="2.5" class="chartlet-point"><title>1900 – Water withdrawal (km³) · Value: 580</title></circle><circle cx="129.199" cy="452.96" r="2.5" class="chartlet-point"><title>1925 – Water withdrawal (km³) · Value: 800</title></circle><circle cx="192.397" cy="436.06" r="2.5" class="chartlet-point"><title>1950 – Water withdrawal (km³) · Value: 1,300</title></circle><circle cx="255.596" cy="392.12" r="2.5" class="chartlet-point"><title>1975 – Water withdrawal (km³) · Value: 2,600</title></circle><circle cx="318.794" cy="354.94" r="2.5" class="chartlet-point"><title>2000 – Water withdrawal (km³) · Value: 3,700</title></circle><circle cx="382" cy="341.42" r="2.5" class="chartlet-point"><title>2025 – Water withdrawal (km³) · Value: 4,100</title></circle><text x="444" y="299" text-anchor="start" class="chartlet-panel-title">Fertilizer use (Mt)</text><line x1="444" y1="480" x2="772" y2="480" class="chartlet-zero"/><text x="434" y="484" text-anchor="end" class="chartlet-tick">0</text><line x1="444" y1="437.75" x2="772" y2="437.75" class="chartlet-grid"/><text x="434" y="441.75" text-anchor="end" class="chartlet-tick">50</text><line x1="444" y1="395.5" x2="772" y2="395.5" class="chartlet-grid"/><text x="434" y="399.5" text-anchor="end" class="chartlet-tick">100</text><line x1="444" y1="353.25" x2="772" y2="353.25" class="chartlet-grid"/><text x="434" y="357.25" text-anchor="end" class="chartlet-tick">150</text><line x1="444" y1="311" x2="772" y2="311" class="chartlet-grid"/><text x="434" y="315" text-anchor="end" class="chartlet-tick">200</text><line x1="450" y1="311" x2="450" y2="480" class="chartlet-grid"/><text x="450" y="504" text-anchor="middle" class="chartlet-tick">1900</text><line x1="576.397" y1="311" x2="576.397" y2="480" class="chartlet-grid"/><text x="576.397" y="504" text-anchor="middle" class="chartlet-tick">1950</text><line x1="702.794" y1="311" x2="702.794" y2="480" class="chartlet-grid"/><text x="702.794" y="504" text-anchor="middle" class="chartlet-tick">2000</text><polyline points="450,479.155 513.199,477.465 576.397,468.17 639.596,399.725 702.794,365.925 766,319.45" class="chartlet-line chartlet-line-series-1"/><circle cx="450" cy="479.155" r="2.5" class="chartlet-point"><title>1900 – Fertilizer use (Mt) · Value: 1</title></circle><circle cx="513.199" cy="477.465" r="2.5" class="chartlet-point"><title>1925 – Fertilizer use (Mt) · Value: 3</title></circle><circle cx="576.397" cy="468.17" r="2.5" class="chartlet-point"><title>1950 – Fertilizer use (Mt) · Value: 14</title></circle><circle cx="639.596" cy="399.725" r="2.5" class="chartlet-point"><title>1975 – Fertilizer use (Mt) · Value: 95</title></circle><circle cx="702.794" cy="365.925" r="2.5" class="chartlet-point"><title>2000 – Fertilizer use (Mt) · Value: 135</title></circle><circle cx="766" cy="319.45" r="2.5" class="chartlet-point"><title>2025 – Fertilizer use (Mt) · Value: 190</title></circle></svg>