<svg xmlns="http://www.w3.org/2000/svg" width="800" height="450" viewBox="0 0 800 450" id="chartlet-3dbfde720275ab2a" role="img" aria-labelledby="chartlet-3dbfde720275ab2a-title chartlet-3dbfde720275ab2a-description" class="chartlet-root"><title id="chartlet-3dbfde720275ab2a-title">Electricity generation by source</title><desc id="chartlet-3dbfde720275ab2a-description">Time chart with 7 points from 2000 to 2024 and 4 series (Fossil, Nuclear, Hydro and other, Wind and solar). Highest: 1,520 (Fossil in 2004). Lowest: 25 (Wind and solar in 2000). Stacked areas, from the bottom up: Fossil, Nuclear, Hydro and other, Wind and solar; the top edge shows their total.</desc><style>.chartlet-root{--chartlet-text:#172033;--chartlet-muted:#344054;--chartlet-grid:#d9dee8;--chartlet-zero:#667085;--chartlet-accent:#2563eb;--chartlet-background:#fff;--chartlet-color-1:#2563eb;--chartlet-color-2:#c2410c;--chartlet-color-3:#475569;--chartlet-color-4:#111827;max-width:100%;height:auto;font-family:Inter,ui-sans-serif,system-ui,sans-serif;color:var(--chartlet-text)}#chartlet-3dbfde720275ab2a .chartlet-title{font-size:22px;font-weight:650;fill:var(--chartlet-text)}#chartlet-3dbfde720275ab2a .chartlet-label,#chartlet-3dbfde720275ab2a .chartlet-tick,#chartlet-3dbfde720275ab2a .chartlet-value,#chartlet-3dbfde720275ab2a .chartlet-value-inverse,#chartlet-3dbfde720275ab2a .chartlet-axis-title{font-size:12px;fill:var(--chartlet-muted)}#chartlet-3dbfde720275ab2a .chartlet-value,#chartlet-3dbfde720275ab2a .chartlet-value-inverse{font-weight:600}#chartlet-3dbfde720275ab2a .chartlet-value{fill:var(--chartlet-text)}#chartlet-3dbfde720275ab2a .chartlet-value-inverse{fill:var(--chartlet-background)}#chartlet-3dbfde720275ab2a .chartlet-axis-title{font-weight:600}#chartlet-3dbfde720275ab2a .chartlet-grid{stroke:var(--chartlet-grid);stroke-width:1}#chartlet-3dbfde720275ab2a .chartlet-zero{stroke:var(--chartlet-zero);stroke-width:1.5}#chartlet-3dbfde720275ab2a .chartlet-bar,#chartlet-3dbfde720275ab2a .chartlet-point{fill:var(--chartlet-accent)}#chartlet-3dbfde720275ab2a .chartlet-line{fill:none;stroke:var(--chartlet-accent);stroke-width:3;stroke-linecap:round;stroke-linejoin:round}#chartlet-3dbfde720275ab2a .chartlet-background{fill:var(--chartlet-background)}#chartlet-3dbfde720275ab2a .chartlet-legend{font-size:12px;fill:var(--chartlet-muted)}#chartlet-3dbfde720275ab2a .chartlet-line-series-1{stroke:var(--chartlet-color-1)}#chartlet-3dbfde720275ab2a .chartlet-line-series-2{stroke:var(--chartlet-color-2)}#chartlet-3dbfde720275ab2a .chartlet-line-series-3{stroke:var(--chartlet-color-3)}#chartlet-3dbfde720275ab2a .chartlet-line-series-4{stroke:var(--chartlet-color-4)}#chartlet-3dbfde720275ab2a .chartlet-point-series-1{fill:var(--chartlet-color-1)}#chartlet-3dbfde720275ab2a .chartlet-hit{fill:transparent;stroke:none}#chartlet-3dbfde720275ab2a .chartlet-band{stroke:none;fill-opacity:.18}#chartlet-3dbfde720275ab2a .chartlet-band-series-1{fill:var(--chartlet-color-1)}#chartlet-3dbfde720275ab2a .chartlet-band-series-2{fill:var(--chartlet-color-2)}#chartlet-3dbfde720275ab2a .chartlet-band-series-3{fill:var(--chartlet-color-3)}#chartlet-3dbfde720275ab2a .chartlet-band-series-4{fill:var(--chartlet-color-4)}#chartlet-3dbfde720275ab2a .chartlet-hatch{stroke:none}#chartlet-3dbfde720275ab2a .chartlet-hatch-line{stroke-width:1.2;opacity:.75}#chartlet-3dbfde720275ab2a .chartlet-line-modeled{stroke-dasharray:7 5}#chartlet-3dbfde720275ab2a .chartlet-line-thin{stroke-width:1}#chartlet-3dbfde720275ab2a .chartlet-point-series-2{fill:var(--chartlet-color-2)}#chartlet-3dbfde720275ab2a .chartlet-point-series-3{fill:var(--chartlet-color-3)}#chartlet-3dbfde720275ab2a .chartlet-point-series-4{fill:var(--chartlet-color-4)}#chartlet-3dbfde720275ab2a .chartlet-rule{fill:none;stroke:var(--chartlet-zero);stroke-width:1.5;stroke-dasharray:5 4}#chartlet-3dbfde720275ab2a .chartlet-rule-label{font-size:12px;font-weight:600;fill:var(--chartlet-text);paint-order:stroke;stroke:var(--chartlet-background);stroke-width:3px;stroke-linejoin:round}#chartlet-3dbfde720275ab2a .chartlet-area{stroke:none;fill-opacity:.18}#chartlet-3dbfde720275ab2a .chartlet-line-dashed{stroke-dasharray:7 5}#chartlet-3dbfde720275ab2a .chartlet-line-dotted{stroke-dasharray:0 7}#chartlet-3dbfde720275ab2a .chartlet-line-thin.chartlet-line-dotted{stroke-dasharray:1 3}#chartlet-3dbfde720275ab2a .chartlet-line-bold{stroke-width:4.5}#chartlet-3dbfde720275ab2a.chartlet-multiples .chartlet-line-bold{stroke-width:3}</style><text x="72" y="30" text-anchor="start" class="chartlet-title">Electricity generation by source</text><line x1="72" y1="414" x2="671.64" y2="414" class="chartlet-zero"/><text x="62" y="418" text-anchor="end" class="chartlet-tick">0</text><line x1="72" y1="302" x2="671.64" y2="302" class="chartlet-grid"/><text x="62" y="306" text-anchor="end" class="chartlet-tick">1,000</text><line x1="72" y1="190" x2="671.64" y2="190" class="chartlet-grid"/><text x="62" y="194" text-anchor="end" class="chartlet-tick">2,000</text><line x1="72" y1="78" x2="671.64" y2="78" class="chartlet-grid"/><text x="62" y="82" text-anchor="end" class="chartlet-tick">3,000</text><line x1="78" y1="78" x2="78" y2="414" class="chartlet-grid"/><text x="78" y="438" text-anchor="middle" class="chartlet-tick">2000</text><line x1="200.475" y1="78" x2="200.475" y2="414" class="chartlet-grid"/><text x="200.475" y="438" text-anchor="middle" class="chartlet-tick">2005</text><line x1="322.884" y1="78" x2="322.884" y2="414" class="chartlet-grid"/><text x="322.884" y="438" text-anchor="middle" class="chartlet-tick">2010</text><line x1="445.292" y1="78" x2="445.292" y2="414" class="chartlet-grid"/><text x="445.292" y="438" text-anchor="middle" class="chartlet-tick">2015</text><line x1="567.7" y1="78" x2="567.7" y2="414" class="chartlet-grid"/><text x="567.7" y="438" text-anchor="middle" class="chartlet-tick">2020</text><text x="72" y="58" text-anchor="start" class="chartlet-axis-title">TWh per year</text><polyline points="78,251.6 175.94,243.76 273.88,246 371.82,262.8 469.76,274 567.7,302 665.64,324.4 665.64,414 567.7,414 469.76,414 371.82,414 273.88,414 175.94,414 78,414" class="chartlet-area chartlet-band-series-1"/><polyline points="78,155.28 175.94,142.96 273.88,148.56 371.82,173.2 469.76,186.64 567.7,224.72 665.64,254.96 665.64,324.4 567.7,302 469.76,274 371.82,262.8 273.88,246 175.94,243.76 78,251.6" class="chartlet-area chartlet-band-series-2"/><polyline points="78,110.48 175.94,98.16 273.88,101.52 371.82,122.8 469.76,134 567.7,168.72 665.64,201.2 665.64,254.96 567.7,224.72 469.76,186.64 371.82,173.2 273.88,148.56 175.94,142.96 78,155.28" class="chartlet-area chartlet-band-series-3"/><polyline points="78,107.68 175.94,90.88 273.88,86.96 371.82,90.32 469.76,86.96 567.7,106 665.64,116.08 665.64,201.2 567.7,168.72 469.76,134 371.82,122.8 273.88,101.52 175.94,98.16 78,110.48" class="chartlet-area chartlet-band-series-4"/><polyline points="78,251.6 175.94,243.76 273.88,246 371.82,262.8 469.76,274 567.7,302 665.64,324.4" class="chartlet-line chartlet-line-series-1"/><circle cx="78" cy="251.6" r="4" class="chartlet-point chartlet-point-series-1"><title>2000 – Fossil: 1,450</title></circle><circle cx="175.94" cy="243.76" r="4" class="chartlet-point chartlet-point-series-1"><title>2004 – Fossil: 1,520</title></circle><circle cx="273.88" cy="246" r="4" class="chartlet-point chartlet-point-series-1"><title>2008 – Fossil: 1,500</title></circle><circle cx="371.82" cy="262.8" r="4" class="chartlet-point chartlet-point-series-1"><title>2012 – Fossil: 1,350</title></circle><circle cx="469.76" cy="274" r="4" class="chartlet-point chartlet-point-series-1"><title>2016 – Fossil: 1,250</title></circle><circle cx="567.7" cy="302" r="4" class="chartlet-point chartlet-point-series-1"><title>2020 – Fossil: 1,000</title></circle><circle cx="665.64" cy="324.4" r="4" class="chartlet-point chartlet-point-series-1"><title>2024 – Fossil: 800</title></circle><polyline points="78,155.28 175.94,142.96 273.88,148.56 371.82,173.2 469.76,186.64 567.7,224.72 665.64,254.96" class="chartlet-line chartlet-line-series-2"/><circle cx="78" cy="155.28" r="4" class="chartlet-point chartlet-point-series-2"><title>2000 – Nuclear: 860</title></circle><circle cx="175.94" cy="142.96" r="4" class="chartlet-point chartlet-point-series-2"><title>2004 – Nuclear: 900</title></circle><circle cx="273.88" cy="148.56" r="4" class="chartlet-point chartlet-point-series-2"><title>2008 – Nuclear: 870</title></circle><circle cx="371.82" cy="173.2" r="4" class="chartlet-point chartlet-point-series-2"><title>2012 – Nuclear: 800</title></circle><circle cx="469.76" cy="186.64" r="4" class="chartlet-point chartlet-point-series-2"><title>2016 – Nuclear: 780</title></circle><circle cx="567.7" cy="224.72" r="4" class="chartlet-point chartlet-point-series-2"><title>2020 – Nuclear: 690</title></circle><circle cx="665.64" cy="254.96" r="4" class="chartlet-point chartlet-point-series-2"><title>2024 – Nuclear: 620</title></circle><polyline points="78,110.48 175.94,98.16 273.88,101.52 371.82,122.8 469.76,134 567.7,168.72 665.64,201.2" class="chartlet-line chartlet-line-series-3"/><circle cx="78" cy="110.48" r="4" class="chartlet-point chartlet-point-series-3"><title>2000 – Hydro and other: 400</title></circle><circle cx="175.94" cy="98.16" r="4" class="chartlet-point chartlet-point-series-3"><title>2004 – Hydro and other: 400</title></circle><circle cx="273.88" cy="101.52" r="4" class="chartlet-point chartlet-point-series-3"><title>2008 – Hydro and other: 420</title></circle><circle cx="371.82" cy="122.8" r="4" class="chartlet-point chartlet-point-series-3"><title>2012 – Hydro and other: 450</title></circle><circle cx="469.76" cy="134" r="4" class="chartlet-point chartlet-point-series-3"><title>2016 – Hydro and other: 470</title></circle><circle cx="567.7" cy="168.72" r="4" class="chartlet-point chartlet-point-series-3"><title>2020 – Hydro and other: 500</title></circle><circle cx="665.64" cy="201.2" r="4" class="chartlet-point chartlet-point-series-3"><title>2024 – Hydro and other: 480</title></circle><polyline points="78,107.68 175.94,90.88 273.88,86.96 371.82,90.32 469.76,86.96 567.7,106 665.64,116.08" class="chartlet-line chartlet-line-series-4"/><circle cx="78" cy="107.68" r="4" class="chartlet-point chartlet-point-series-4"><title>2000 – Wind and solar: 25</title></circle><circle cx="175.94" cy="90.88" r="4" class="chartlet-point chartlet-point-series-4"><title>2004 – Wind and solar: 65</title></circle><circle cx="273.88" cy="86.96" r="4" class="chartlet-point chartlet-point-series-4"><title>2008 – Wind and solar: 130</title></circle><circle cx="371.82" cy="90.32" r="4" class="chartlet-point chartlet-point-series-4"><title>2012 – Wind and solar: 290</title></circle><circle cx="469.76" cy="86.96" r="4" class="chartlet-point chartlet-point-series-4"><title>2016 – Wind and solar: 420</title></circle><circle cx="567.7" cy="106" r="4" class="chartlet-point chartlet-point-series-4"><title>2020 – Wind and solar: 560</title></circle><circle cx="665.64" cy="116.08" r="4" class="chartlet-point chartlet-point-series-4"><title>2024 – Wind and solar: 760</title></circle><text x="679.64" y="120.08" text-anchor="start" class="chartlet-legend">Wind and solar</text><text x="679.64" y="205.2" text-anchor="start" class="chartlet-legend">Hydro and other</text><text x="679.64" y="258.96" text-anchor="start" class="chartlet-legend">Nuclear</text><text x="679.64" y="328.4" text-anchor="start" class="chartlet-legend">Fossil</text></svg>