<svg xmlns="http://www.w3.org/2000/svg" width="800" height="450" viewBox="0 0 800 450" id="chartlet-d96761c0e69e11b4" role="img" aria-labelledby="chartlet-d96761c0e69e11b4-title chartlet-d96761c0e69e11b4-description" class="chartlet-root"><title id="chartlet-d96761c0e69e11b4-title">Data hall power draw</title><desc id="chartlet-d96761c0e69e11b4-description">Time chart with 28 points from 2026-03-01 to 2026-03-28 and 5 series (Total, Servers, Cooling, Lighting, Total forecast). Highest: 51.4 (Total in 2026-03-26). Lowest: 4.6 (Lighting in 2026-03-07). 4 values are missing. The area below Total is filled down to zero.</desc><style>.chartlet-root{--chartlet-text:#172033;--chartlet-muted:#344054;--chartlet-grid:#d9dee8;--chartlet-zero:#667085;--chartlet-accent:#2563eb;--chartlet-background:#fff;--chartlet-color-1:#2563eb;--chartlet-color-2:#c2410c;--chartlet-color-3:#475569;--chartlet-color-4:#111827;max-width:100%;height:auto;font-family:Inter,ui-sans-serif,system-ui,sans-serif;color:var(--chartlet-text)}#chartlet-d96761c0e69e11b4 .chartlet-title{font-size:22px;font-weight:650;fill:var(--chartlet-text)}#chartlet-d96761c0e69e11b4 .chartlet-label,#chartlet-d96761c0e69e11b4 .chartlet-tick,#chartlet-d96761c0e69e11b4 .chartlet-value,#chartlet-d96761c0e69e11b4 .chartlet-value-inverse,#chartlet-d96761c0e69e11b4 .chartlet-axis-title{font-size:12px;fill:var(--chartlet-muted)}#chartlet-d96761c0e69e11b4 .chartlet-value,#chartlet-d96761c0e69e11b4 .chartlet-value-inverse{font-weight:600}#chartlet-d96761c0e69e11b4 .chartlet-value{fill:var(--chartlet-text)}#chartlet-d96761c0e69e11b4 .chartlet-value-inverse{fill:var(--chartlet-background)}#chartlet-d96761c0e69e11b4 .chartlet-axis-title{font-weight:600}#chartlet-d96761c0e69e11b4 .chartlet-grid{stroke:var(--chartlet-grid);stroke-width:1}#chartlet-d96761c0e69e11b4 .chartlet-zero{stroke:var(--chartlet-zero);stroke-width:1.5}#chartlet-d96761c0e69e11b4 .chartlet-bar,#chartlet-d96761c0e69e11b4 .chartlet-point{fill:var(--chartlet-accent)}#chartlet-d96761c0e69e11b4 .chartlet-line{fill:none;stroke:var(--chartlet-accent);stroke-width:3;stroke-linecap:round;stroke-linejoin:round}#chartlet-d96761c0e69e11b4 .chartlet-background{fill:var(--chartlet-background)}#chartlet-d96761c0e69e11b4 .chartlet-legend{font-size:12px;fill:var(--chartlet-muted)}#chartlet-d96761c0e69e11b4 .chartlet-line-series-1{stroke:var(--chartlet-color-1)}#chartlet-d96761c0e69e11b4 .chartlet-line-series-2{stroke:var(--chartlet-color-2)}#chartlet-d96761c0e69e11b4 .chartlet-line-series-3{stroke:var(--chartlet-color-3)}#chartlet-d96761c0e69e11b4 .chartlet-line-series-4{stroke:var(--chartlet-color-4)}#chartlet-d96761c0e69e11b4 .chartlet-band{stroke:none;fill-opacity:.18}#chartlet-d96761c0e69e11b4 .chartlet-band-series-1{fill:var(--chartlet-color-1)}#chartlet-d96761c0e69e11b4 .chartlet-band-series-2{fill:var(--chartlet-color-2)}#chartlet-d96761c0e69e11b4 .chartlet-band-series-3{fill:var(--chartlet-color-3)}#chartlet-d96761c0e69e11b4 .chartlet-band-series-4{fill:var(--chartlet-color-4)}#chartlet-d96761c0e69e11b4 .chartlet-hatch{stroke:none}#chartlet-d96761c0e69e11b4 .chartlet-hatch-line{stroke-width:1.2;opacity:.75}#chartlet-d96761c0e69e11b4 .chartlet-line-modeled{stroke-dasharray:7 5}#chartlet-d96761c0e69e11b4 .chartlet-line-thin{stroke-width:1}#chartlet-d96761c0e69e11b4 .chartlet-point-series-2{fill:var(--chartlet-color-2)}#chartlet-d96761c0e69e11b4 .chartlet-point-series-3{fill:var(--chartlet-color-3)}#chartlet-d96761c0e69e11b4 .chartlet-point-series-4{fill:var(--chartlet-color-4)}#chartlet-d96761c0e69e11b4 .chartlet-rule{fill:none;stroke:var(--chartlet-zero);stroke-width:1.5;stroke-dasharray:5 4}#chartlet-d96761c0e69e11b4 .chartlet-rule-label{font-size:12px;font-weight:600;fill:var(--chartlet-text);paint-order:stroke;stroke:var(--chartlet-background);stroke-width:3px;stroke-linejoin:round}#chartlet-d96761c0e69e11b4 .chartlet-area{stroke:none;fill-opacity:.18}#chartlet-d96761c0e69e11b4 .chartlet-line-dashed{stroke-dasharray:7 5}#chartlet-d96761c0e69e11b4 .chartlet-line-dotted{stroke-dasharray:0 7}#chartlet-d96761c0e69e11b4 .chartlet-line-thin.chartlet-line-dotted{stroke-dasharray:1 3}#chartlet-d96761c0e69e11b4 .chartlet-line-bold{stroke-width:4.5}#chartlet-d96761c0e69e11b4.chartlet-multiples .chartlet-line-bold{stroke-width:3}#chartlet-d96761c0e69e11b4 .chartlet-style-4{stroke:#7c3aed}#chartlet-d96761c0e69e11b4 .chartlet-style-4-swatch{fill:#7c3aed}#chartlet-d96761c0e69e11b4 .chartlet-style-4-point{fill:#7c3aed}</style><text x="72" y="30" text-anchor="start" class="chartlet-title">Data hall power draw</text><line x1="72" y1="394" x2="776" y2="394" class="chartlet-zero"/><text x="62" y="398" text-anchor="end" class="chartlet-tick">0</text><line x1="72" y1="296.667" x2="776" y2="296.667" class="chartlet-grid"/><text x="62" y="300.667" text-anchor="end" class="chartlet-tick">20</text><line x1="72" y1="199.333" x2="776" y2="199.333" class="chartlet-grid"/><text x="62" y="203.333" text-anchor="end" class="chartlet-tick">40</text><line x1="72" y1="102" x2="776" y2="102" class="chartlet-grid"/><text x="62" y="106" text-anchor="end" class="chartlet-tick">60</text><line x1="78" y1="102" x2="78" y2="394" class="chartlet-grid"/><text x="78" y="418" text-anchor="middle" class="chartlet-tick">2026-03-01</text><line x1="257.407" y1="102" x2="257.407" y2="394" class="chartlet-grid"/><text x="257.407" y="418" text-anchor="middle" class="chartlet-tick">2026-03-08</text><line x1="436.815" y1="102" x2="436.815" y2="394" class="chartlet-grid"/><text x="436.815" y="418" text-anchor="middle" class="chartlet-tick">2026-03-15</text><line x1="616.222" y1="102" x2="616.222" y2="394" class="chartlet-grid"/><text x="616.222" y="418" text-anchor="middle" class="chartlet-tick">2026-03-22</text><text x="72" y="82" text-anchor="start" class="chartlet-axis-title">Power (kW)</text><rect x="72" y="51" width="24" height="8" class="chartlet-area chartlet-band-series-1"/><polyline points="72,51 96,51" class="chartlet-line chartlet-line-series-1"/><text x="104" y="55" text-anchor="start" class="chartlet-legend">Total</text><polyline points="155.8,51 179.8,51" class="chartlet-line chartlet-line-bold chartlet-line-series-2"/><text x="187.8" y="55" text-anchor="start" class="chartlet-legend">Servers</text><polyline points="256.16,51 280.16,51" class="chartlet-line chartlet-line-series-3"/><text x="288.16" y="55" text-anchor="start" class="chartlet-legend">Cooling</text><polyline points="350.28,51 374.28,51" class="chartlet-line chartlet-line-dotted chartlet-line-series-4"/><text x="382.28" y="55" text-anchor="start" class="chartlet-legend">Lighting</text><polyline points="451.12,51 475.12,51" class="chartlet-line chartlet-line-dashed chartlet-style-4"/><text x="483.12" y="55" text-anchor="start" class="chartlet-legend">Total forecast</text><polyline points="78,176.947 103.63,169.647 129.259,164.293 154.889,159.913 180.519,158.94 206.148,167.7 231.778,171.107 257.407,166.24 283.037,172.567 283.037,394 78,394" class="chartlet-area chartlet-band-series-1"/><polyline points="359.926,192.52 385.556,207.12 411.185,210.04 436.815,202.74 462.444,201.28 488.074,198.36 513.704,192.52 539.333,186.193 564.963,186.193 590.593,178.893 616.222,160.887 641.852,154.56 667.481,148.72 693.111,146.287 718.741,143.853 744.37,155.047 770,156.993 770,394 359.926,394" class="chartlet-area chartlet-band-series-1"/><polyline points="78,176.947 103.63,169.647 129.259,164.293 154.889,159.913 180.519,158.94 206.148,167.7 231.778,171.107 257.407,166.24 283.037,172.567" class="chartlet-line chartlet-line-series-1"/><polyline points="359.926,192.52 385.556,207.12 411.185,210.04 436.815,202.74 462.444,201.28 488.074,198.36 513.704,192.52 539.333,186.193 564.963,186.193 590.593,178.893 616.222,160.887 641.852,154.56 667.481,148.72 693.111,146.287 718.741,143.853 744.37,155.047 770,156.993" class="chartlet-line chartlet-line-series-1"/><circle cx="78" cy="176.947" r="4" class="chartlet-point"><title>2026-03-01 – Total: 44.6</title></circle><circle cx="103.63" cy="169.647" r="4" class="chartlet-point"><title>2026-03-02 – Total: 46.1</title></circle><circle cx="129.259" cy="164.293" r="4" class="chartlet-point"><title>2026-03-03 – Total: 47.2</title></circle><circle cx="154.889" cy="159.913" r="4" class="chartlet-point"><title>2026-03-04 – Total: 48.1</title></circle><circle cx="180.519" cy="158.94" r="4" class="chartlet-point"><title>2026-03-05 – Total: 48.3</title></circle><circle cx="206.148" cy="167.7" r="4" class="chartlet-point"><title>2026-03-06 – Total: 46.5</title></circle><circle cx="231.778" cy="171.107" r="4" class="chartlet-point"><title>2026-03-07 – Total: 45.8</title></circle><circle cx="257.407" cy="166.24" r="4" class="chartlet-point"><title>2026-03-08 – Total: 46.8</title></circle><circle cx="283.037" cy="172.567" r="4" class="chartlet-point"><title>2026-03-09 – Total: 45.5</title></circle><circle cx="359.926" cy="192.52" r="4" class="chartlet-point"><title>2026-03-12 – Total: 41.4</title></circle><circle cx="385.556" cy="207.12" r="4" class="chartlet-point"><title>2026-03-13 – Total: 38.4</title></circle><circle cx="411.185" cy="210.04" r="4" class="chartlet-point"><title>2026-03-14 – Total: 37.8</title></circle><circle cx="436.815" cy="202.74" r="4" class="chartlet-point"><title>2026-03-15 – Total: 39.3</title></circle><circle cx="462.444" cy="201.28" r="4" class="chartlet-point"><title>2026-03-16 – Total: 39.6</title></circle><circle cx="488.074" cy="198.36" r="4" class="chartlet-point"><title>2026-03-17 – Total: 40.2</title></circle><circle cx="513.704" cy="192.52" r="4" class="chartlet-point"><title>2026-03-18 – Total: 41.4</title></circle><circle cx="539.333" cy="186.193" r="4" class="chartlet-point"><title>2026-03-19 – Total: 42.7</title></circle><circle cx="564.963" cy="186.193" r="4" class="chartlet-point"><title>2026-03-20 – Total: 42.7</title></circle><circle cx="590.593" cy="178.893" r="4" class="chartlet-point"><title>2026-03-21 – Total: 44.2</title></circle><circle cx="616.222" cy="160.887" r="4" class="chartlet-point"><title>2026-03-22 – Total: 47.9</title></circle><circle cx="641.852" cy="154.56" r="4" class="chartlet-point"><title>2026-03-23 – Total: 49.2</title></circle><circle cx="667.481" cy="148.72" r="4" class="chartlet-point"><title>2026-03-24 – Total: 50.4</title></circle><circle cx="693.111" cy="146.287" r="4" class="chartlet-point"><title>2026-03-25 – Total: 50.9</title></circle><circle cx="718.741" cy="143.853" r="4" class="chartlet-point"><title>2026-03-26 – Total: 51.4</title></circle><circle cx="744.37" cy="155.047" r="4" class="chartlet-point"><title>2026-03-27 – Total: 49.1</title></circle><circle cx="770" cy="156.993" r="4" class="chartlet-point"><title>2026-03-28 – Total: 48.7</title></circle><polyline points="78,286.933 103.63,281.58 129.259,277.2 154.889,273.307 180.519,271.36 206.148,270.387 231.778,271.36 257.407,273.793 283.037,277.2 308.667,281.58 334.296,285.96 359.926,289.853 385.556,293.26 411.185,295.207 436.815,296.18 462.444,295.207 488.074,292.773 513.704,288.88 539.333,284.013 564.963,278.66 590.593,273.793 616.222,268.927 641.852,265.52 667.481,263.573 693.111,263.087 718.741,264.06 744.37,266.98 770,270.387" class="chartlet-line chartlet-line-bold chartlet-line-series-2"/><circle cx="78" cy="286.933" r="4" class="chartlet-point chartlet-point-series-2"><title>2026-03-01 – Servers: 22.0</title></circle><circle cx="103.63" cy="281.58" r="4" class="chartlet-point chartlet-point-series-2"><title>2026-03-02 – Servers: 23.1</title></circle><circle cx="129.259" cy="277.2" r="4" class="chartlet-point chartlet-point-series-2"><title>2026-03-03 – Servers: 24.0</title></circle><circle cx="154.889" cy="273.307" r="4" class="chartlet-point chartlet-point-series-2"><title>2026-03-04 – Servers: 24.8</title></circle><circle cx="180.519" cy="271.36" r="4" class="chartlet-point chartlet-point-series-2"><title>2026-03-05 – Servers: 25.2</title></circle><circle cx="206.148" cy="270.387" r="4" class="chartlet-point chartlet-point-series-2"><title>2026-03-06 – Servers: 25.4</title></circle><circle cx="231.778" cy="271.36" r="4" class="chartlet-point chartlet-point-series-2"><title>2026-03-07 – Servers: 25.2</title></circle><circle cx="257.407" cy="273.793" r="4" class="chartlet-point chartlet-point-series-2"><title>2026-03-08 – Servers: 24.7</title></circle><circle cx="283.037" cy="277.2" r="4" class="chartlet-point chartlet-point-series-2"><title>2026-03-09 – Servers: 24.0</title></circle><circle cx="308.667" cy="281.58" r="4" class="chartlet-point chartlet-point-series-2"><title>2026-03-10 – Servers: 23.1</title></circle><circle cx="334.296" cy="285.96" r="4" class="chartlet-point chartlet-point-series-2"><title>2026-03-11 – Servers: 22.2</title></circle><circle cx="359.926" cy="289.853" r="4" class="chartlet-point chartlet-point-series-2"><title>2026-03-12 – Servers: 21.4</title></circle><circle cx="385.556" cy="293.26" r="4" class="chartlet-point chartlet-point-series-2"><title>2026-03-13 – Servers: 20.7</title></circle><circle cx="411.185" cy="295.207" r="4" class="chartlet-point chartlet-point-series-2"><title>2026-03-14 – Servers: 20.3</title></circle><circle cx="436.815" cy="296.18" r="4" class="chartlet-point chartlet-point-series-2"><title>2026-03-15 – Servers: 20.1</title></circle><circle cx="462.444" cy="295.207" r="4" class="chartlet-point chartlet-point-series-2"><title>2026-03-16 – Servers: 20.3</title></circle><circle cx="488.074" cy="292.773" r="4" class="chartlet-point chartlet-point-series-2"><title>2026-03-17 – Servers: 20.8</title></circle><circle cx="513.704" cy="288.88" r="4" class="chartlet-point chartlet-point-series-2"><title>2026-03-18 – Servers: 21.6</title></circle><circle cx="539.333" cy="284.013" r="4" class="chartlet-point chartlet-point-series-2"><title>2026-03-19 – Servers: 22.6</title></circle><circle cx="564.963" cy="278.66" r="4" class="chartlet-point chartlet-point-series-2"><title>2026-03-20 – Servers: 23.7</title></circle><circle cx="590.593" cy="273.793" r="4" class="chartlet-point chartlet-point-series-2"><title>2026-03-21 – Servers: 24.7</title></circle><circle cx="616.222" cy="268.927" r="4" class="chartlet-point chartlet-point-series-2"><title>2026-03-22 – Servers: 25.7</title></circle><circle cx="641.852" cy="265.52" r="4" class="chartlet-point chartlet-point-series-2"><title>2026-03-23 – Servers: 26.4</title></circle><circle cx="667.481" cy="263.573" r="4" class="chartlet-point chartlet-point-series-2"><title>2026-03-24 – Servers: 26.8</title></circle><circle cx="693.111" cy="263.087" r="4" class="chartlet-point chartlet-point-series-2"><title>2026-03-25 – Servers: 26.9</title></circle><circle cx="718.741" cy="264.06" r="4" class="chartlet-point chartlet-point-series-2"><title>2026-03-26 – Servers: 26.7</title></circle><circle cx="744.37" cy="266.98" r="4" class="chartlet-point chartlet-point-series-2"><title>2026-03-27 – Servers: 26.1</title></circle><circle cx="770" cy="270.387" r="4" class="chartlet-point chartlet-point-series-2"><title>2026-03-28 – Servers: 25.4</title></circle><polyline points="78,330.247 103.63,328.787 129.259,327.813 154.889,327.813 180.519,328.3 206.148,329.76 231.778,331.707 257.407,334.14 283.037,336.573" class="chartlet-line chartlet-line-series-3"/><polyline points="359.926,344.847 385.556,346.793 411.185,348.253 436.815,348.74 462.444,348.74 488.074,348.253 513.704,346.793 539.333,344.847 564.963,341.927 590.593,339.007 616.222,335.6 641.852,332.68 667.481,329.273 693.111,326.84 718.741,324.407 744.37,322.947 770,321.973" class="chartlet-line chartlet-line-series-3"/><circle cx="78" cy="330.247" r="4" class="chartlet-point chartlet-point-series-3"><title>2026-03-01 – Cooling: 13.1</title></circle><circle cx="103.63" cy="328.787" r="4" class="chartlet-point chartlet-point-series-3"><title>2026-03-02 – Cooling: 13.4</title></circle><circle cx="129.259" cy="327.813" r="4" class="chartlet-point chartlet-point-series-3"><title>2026-03-03 – Cooling: 13.6</title></circle><circle cx="154.889" cy="327.813" r="4" class="chartlet-point chartlet-point-series-3"><title>2026-03-04 – Cooling: 13.6</title></circle><circle cx="180.519" cy="328.3" r="4" class="chartlet-point chartlet-point-series-3"><title>2026-03-05 – Cooling: 13.5</title></circle><circle cx="206.148" cy="329.76" r="4" class="chartlet-point chartlet-point-series-3"><title>2026-03-06 – Cooling: 13.2</title></circle><circle cx="231.778" cy="331.707" r="4" class="chartlet-point chartlet-point-series-3"><title>2026-03-07 – Cooling: 12.8</title></circle><circle cx="257.407" cy="334.14" r="4" class="chartlet-point chartlet-point-series-3"><title>2026-03-08 – Cooling: 12.3</title></circle><circle cx="283.037" cy="336.573" r="4" class="chartlet-point chartlet-point-series-3"><title>2026-03-09 – Cooling: 11.8</title></circle><circle cx="359.926" cy="344.847" r="4" class="chartlet-point chartlet-point-series-3"><title>2026-03-12 – Cooling: 10.1</title></circle><circle cx="385.556" cy="346.793" r="4" class="chartlet-point chartlet-point-series-3"><title>2026-03-13 – Cooling: 9.7</title></circle><circle cx="411.185" cy="348.253" r="4" class="chartlet-point chartlet-point-series-3"><title>2026-03-14 – Cooling: 9.4</title></circle><circle cx="436.815" cy="348.74" r="4" class="chartlet-point chartlet-point-series-3"><title>2026-03-15 – Cooling: 9.3</title></circle><circle cx="462.444" cy="348.74" r="4" class="chartlet-point chartlet-point-series-3"><title>2026-03-16 – Cooling: 9.3</title></circle><circle cx="488.074" cy="348.253" r="4" class="chartlet-point chartlet-point-series-3"><title>2026-03-17 – Cooling: 9.4</title></circle><circle cx="513.704" cy="346.793" r="4" class="chartlet-point chartlet-point-series-3"><title>2026-03-18 – Cooling: 9.7</title></circle><circle cx="539.333" cy="344.847" r="4" class="chartlet-point chartlet-point-series-3"><title>2026-03-19 – Cooling: 10.1</title></circle><circle cx="564.963" cy="341.927" r="4" class="chartlet-point chartlet-point-series-3"><title>2026-03-20 – Cooling: 10.7</title></circle><circle cx="590.593" cy="339.007" r="4" class="chartlet-point chartlet-point-series-3"><title>2026-03-21 – Cooling: 11.3</title></circle><circle cx="616.222" cy="335.6" r="4" class="chartlet-point chartlet-point-series-3"><title>2026-03-22 – Cooling: 12.0</title></circle><circle cx="641.852" cy="332.68" r="4" class="chartlet-point chartlet-point-series-3"><title>2026-03-23 – Cooling: 12.6</title></circle><circle cx="667.481" cy="329.273" r="4" class="chartlet-point chartlet-point-series-3"><title>2026-03-24 – Cooling: 13.3</title></circle><circle cx="693.111" cy="326.84" r="4" class="chartlet-point chartlet-point-series-3"><title>2026-03-25 – Cooling: 13.8</title></circle><circle cx="718.741" cy="324.407" r="4" class="chartlet-point chartlet-point-series-3"><title>2026-03-26 – Cooling: 14.3</title></circle><circle cx="744.37" cy="322.947" r="4" class="chartlet-point chartlet-point-series-3"><title>2026-03-27 – Cooling: 14.6</title></circle><circle cx="770" cy="321.973" r="4" class="chartlet-point chartlet-point-series-3"><title>2026-03-28 – Cooling: 14.8</title></circle><polyline points="78,363.34 103.63,362.853 129.259,362.853 154.889,362.367 180.519,362.853 206.148,371.127 231.778,371.613 257.407,361.88 283.037,362.367 308.667,361.393 334.296,361.88 359.926,361.393 385.556,370.64 411.185,370.153 436.815,361.393 462.444,360.907 488.074,360.907 513.704,360.42 539.333,360.907 564.963,369.18 590.593,369.667 616.222,359.933 641.852,359.933 667.481,359.447 693.111,359.933 718.741,358.96 744.37,368.693 770,368.207" class="chartlet-line chartlet-line-dotted chartlet-line-series-4"/><circle cx="78" cy="363.34" r="4" class="chartlet-point chartlet-point-series-4"><title>2026-03-01 – Lighting: 6.3</title></circle><circle cx="103.63" cy="362.853" r="4" class="chartlet-point chartlet-point-series-4"><title>2026-03-02 – Lighting: 6.4</title></circle><circle cx="129.259" cy="362.853" r="4" class="chartlet-point chartlet-point-series-4"><title>2026-03-03 – Lighting: 6.4</title></circle><circle cx="154.889" cy="362.367" r="4" class="chartlet-point chartlet-point-series-4"><title>2026-03-04 – Lighting: 6.5</title></circle><circle cx="180.519" cy="362.853" r="4" class="chartlet-point chartlet-point-series-4"><title>2026-03-05 – Lighting: 6.4</title></circle><circle cx="206.148" cy="371.127" r="4" class="chartlet-point chartlet-point-series-4"><title>2026-03-06 – Lighting: 4.7</title></circle><circle cx="231.778" cy="371.613" r="4" class="chartlet-point chartlet-point-series-4"><title>2026-03-07 – Lighting: 4.6</title></circle><circle cx="257.407" cy="361.88" r="4" class="chartlet-point chartlet-point-series-4"><title>2026-03-08 – Lighting: 6.6</title></circle><circle cx="283.037" cy="362.367" r="4" class="chartlet-point chartlet-point-series-4"><title>2026-03-09 – Lighting: 6.5</title></circle><circle cx="308.667" cy="361.393" r="4" class="chartlet-point chartlet-point-series-4"><title>2026-03-10 – Lighting: 6.7</title></circle><circle cx="334.296" cy="361.88" r="4" class="chartlet-point chartlet-point-series-4"><title>2026-03-11 – Lighting: 6.6</title></circle><circle cx="359.926" cy="361.393" r="4" class="chartlet-point chartlet-point-series-4"><title>2026-03-12 – Lighting: 6.7</title></circle><circle cx="385.556" cy="370.64" r="4" class="chartlet-point chartlet-point-series-4"><title>2026-03-13 – Lighting: 4.8</title></circle><circle cx="411.185" cy="370.153" r="4" class="chartlet-point chartlet-point-series-4"><title>2026-03-14 – Lighting: 4.9</title></circle><circle cx="436.815" cy="361.393" r="4" class="chartlet-point chartlet-point-series-4"><title>2026-03-15 – Lighting: 6.7</title></circle><circle cx="462.444" cy="360.907" r="4" class="chartlet-point chartlet-point-series-4"><title>2026-03-16 – Lighting: 6.8</title></circle><circle cx="488.074" cy="360.907" r="4" class="chartlet-point chartlet-point-series-4"><title>2026-03-17 – Lighting: 6.8</title></circle><circle cx="513.704" cy="360.42" r="4" class="chartlet-point chartlet-point-series-4"><title>2026-03-18 – Lighting: 6.9</title></circle><circle cx="539.333" cy="360.907" r="4" class="chartlet-point chartlet-point-series-4"><title>2026-03-19 – Lighting: 6.8</title></circle><circle cx="564.963" cy="369.18" r="4" class="chartlet-point chartlet-point-series-4"><title>2026-03-20 – Lighting: 5.1</title></circle><circle cx="590.593" cy="369.667" r="4" class="chartlet-point chartlet-point-series-4"><title>2026-03-21 – Lighting: 5.0</title></circle><circle cx="616.222" cy="359.933" r="4" class="chartlet-point chartlet-point-series-4"><title>2026-03-22 – Lighting: 7.0</title></circle><circle cx="641.852" cy="359.933" r="4" class="chartlet-point chartlet-point-series-4"><title>2026-03-23 – Lighting: 7.0</title></circle><circle cx="667.481" cy="359.447" r="4" class="chartlet-point chartlet-point-series-4"><title>2026-03-24 – Lighting: 7.1</title></circle><circle cx="693.111" cy="359.933" r="4" class="chartlet-point chartlet-point-series-4"><title>2026-03-25 – Lighting: 7.0</title></circle><circle cx="718.741" cy="358.96" r="4" class="chartlet-point chartlet-point-series-4"><title>2026-03-26 – Lighting: 7.2</title></circle><circle cx="744.37" cy="368.693" r="4" class="chartlet-point chartlet-point-series-4"><title>2026-03-27 – Lighting: 5.2</title></circle><circle cx="770" cy="368.207" r="4" class="chartlet-point chartlet-point-series-4"><title>2026-03-28 – Lighting: 5.3</title></circle><polyline points="590.593,178.893 616.222,176.947 641.852,175.487 667.481,174.027 693.111,172.08 718.741,170.133 744.37,168.673 770,166.727" class="chartlet-line chartlet-line-dashed chartlet-style-4"/><circle cx="590.593" cy="178.893" r="4" class="chartlet-point chartlet-style-4-point"><title>2026-03-21 – Total forecast: 44.2</title></circle><circle cx="616.222" cy="176.947" r="4" class="chartlet-point chartlet-style-4-point"><title>2026-03-22 – Total forecast: 44.6</title></circle><circle cx="641.852" cy="175.487" r="4" class="chartlet-point chartlet-style-4-point"><title>2026-03-23 – Total forecast: 44.9</title></circle><circle cx="667.481" cy="174.027" r="4" class="chartlet-point chartlet-style-4-point"><title>2026-03-24 – Total forecast: 45.2</title></circle><circle cx="693.111" cy="172.08" r="4" class="chartlet-point chartlet-style-4-point"><title>2026-03-25 – Total forecast: 45.6</title></circle><circle cx="718.741" cy="170.133" r="4" class="chartlet-point chartlet-style-4-point"><title>2026-03-26 – Total forecast: 46.0</title></circle><circle cx="744.37" cy="168.673" r="4" class="chartlet-point chartlet-style-4-point"><title>2026-03-27 – Total forecast: 46.3</title></circle><circle cx="770" cy="166.727" r="4" class="chartlet-point chartlet-style-4-point"><title>2026-03-28 – Total forecast: 46.7</title></circle><text x="424" y="436" text-anchor="middle" class="chartlet-axis-title">Day</text></svg>