<svg xmlns="http://www.w3.org/2000/svg" width="800" height="560" viewBox="0 0 800 560" id="chartlet-6583ef0b4fd59b75" role="img" aria-labelledby="chartlet-6583ef0b4fd59b75-title chartlet-6583ef0b4fd59b75-description" class="chartlet-root"><title id="chartlet-6583ef0b4fd59b75-title">Kestrel Instruments (KSTL), daily share price</title><desc id="chartlet-6583ef0b4fd59b75-description">Time chart with 65 points from 2026-01-07 to 2026-04-09 and 3 series (KSTL, 20-day average, Volume). 2 stacked panes on one time axis: Price (USD), Volume (million shares). KSTL: opened at 49.24 on 2026-01-07 and closed at 64.19 on 2026-04-09, a change of +14.95 (+30.4%); high 64.31 on 2026-04-09, low 48.93 on 2026-01-07. Price (USD) – Highest: 61.35 (20-day average in 2026-04-09). Lowest: 49.59 (20-day average in 2026-01-07). Volume (million shares) – Highest: 6.8 (Volume in 2026-02-17). Lowest: 1.1 (Volume in 2026-03-16). Gaps in time are closed up. The area below Volume is filled down to zero. Markers: Quarterly results at 2026-02-17, 64.44.</desc><style>.chartlet-root{--chartlet-text:#172033;--chartlet-muted:#344054;--chartlet-grid:#d9dee8;--chartlet-zero:#667085;--chartlet-accent:#2563eb;--chartlet-background:#fff;--chartlet-color-1:#2563eb;--chartlet-color-2:#c2410c;--chartlet-color-3:#475569;--chartlet-color-4:#111827;max-width:100%;height:auto;font-family:Inter,ui-sans-serif,system-ui,sans-serif;color:var(--chartlet-text)}#chartlet-6583ef0b4fd59b75 .chartlet-title{font-size:22px;font-weight:650;fill:var(--chartlet-text)}#chartlet-6583ef0b4fd59b75 .chartlet-label,#chartlet-6583ef0b4fd59b75 .chartlet-tick,#chartlet-6583ef0b4fd59b75 .chartlet-value,#chartlet-6583ef0b4fd59b75 .chartlet-value-inverse,#chartlet-6583ef0b4fd59b75 .chartlet-axis-title{font-size:12px;fill:var(--chartlet-muted)}#chartlet-6583ef0b4fd59b75 .chartlet-value,#chartlet-6583ef0b4fd59b75 .chartlet-value-inverse{font-weight:600}#chartlet-6583ef0b4fd59b75 .chartlet-value{fill:var(--chartlet-text)}#chartlet-6583ef0b4fd59b75 .chartlet-value-inverse{fill:var(--chartlet-background)}#chartlet-6583ef0b4fd59b75 .chartlet-axis-title{font-weight:600}#chartlet-6583ef0b4fd59b75 .chartlet-grid{stroke:var(--chartlet-grid);stroke-width:1}#chartlet-6583ef0b4fd59b75 .chartlet-zero{stroke:var(--chartlet-zero);stroke-width:1.5}#chartlet-6583ef0b4fd59b75 .chartlet-bar,#chartlet-6583ef0b4fd59b75 .chartlet-point{fill:var(--chartlet-accent)}#chartlet-6583ef0b4fd59b75 .chartlet-line{fill:none;stroke:var(--chartlet-accent);stroke-width:3;stroke-linecap:round;stroke-linejoin:round}#chartlet-6583ef0b4fd59b75 .chartlet-background{fill:var(--chartlet-background)}#chartlet-6583ef0b4fd59b75 .chartlet-legend{font-size:12px;fill:var(--chartlet-muted)}#chartlet-6583ef0b4fd59b75 .chartlet-line-series-1{stroke:var(--chartlet-color-1)}#chartlet-6583ef0b4fd59b75 .chartlet-line-series-2{stroke:var(--chartlet-color-2)}#chartlet-6583ef0b4fd59b75 .chartlet-line-series-3{stroke:var(--chartlet-color-3)}#chartlet-6583ef0b4fd59b75 .chartlet-line-series-4{stroke:var(--chartlet-color-4)}#chartlet-6583ef0b4fd59b75 .chartlet-point-series-1{fill:var(--chartlet-color-1)}#chartlet-6583ef0b4fd59b75 .chartlet-hit{fill:transparent;stroke:none}#chartlet-6583ef0b4fd59b75 .chartlet-band{stroke:none;fill-opacity:.18}#chartlet-6583ef0b4fd59b75 .chartlet-band-series-1{fill:var(--chartlet-color-1)}#chartlet-6583ef0b4fd59b75 .chartlet-band-series-2{fill:var(--chartlet-color-2)}#chartlet-6583ef0b4fd59b75 .chartlet-band-series-3{fill:var(--chartlet-color-3)}#chartlet-6583ef0b4fd59b75 .chartlet-band-series-4{fill:var(--chartlet-color-4)}#chartlet-6583ef0b4fd59b75 .chartlet-hatch{stroke:none}#chartlet-6583ef0b4fd59b75 .chartlet-hatch-line{stroke-width:1.2;opacity:.75}#chartlet-6583ef0b4fd59b75 .chartlet-line-modeled{stroke-dasharray:7 5}#chartlet-6583ef0b4fd59b75 .chartlet-line-thin{stroke-width:1}#chartlet-6583ef0b4fd59b75 .chartlet-point-series-2{fill:var(--chartlet-color-2)}#chartlet-6583ef0b4fd59b75 .chartlet-point-series-3{fill:var(--chartlet-color-3)}#chartlet-6583ef0b4fd59b75 .chartlet-point-series-4{fill:var(--chartlet-color-4)}#chartlet-6583ef0b4fd59b75 .chartlet-rule{fill:none;stroke:var(--chartlet-zero);stroke-width:1.5;stroke-dasharray:5 4}#chartlet-6583ef0b4fd59b75 .chartlet-rule-label{font-size:12px;font-weight:600;fill:var(--chartlet-text);paint-order:stroke;stroke:var(--chartlet-background);stroke-width:3px;stroke-linejoin:round}#chartlet-6583ef0b4fd59b75 .chartlet-area{stroke:none;fill-opacity:.18}#chartlet-6583ef0b4fd59b75 .chartlet-line-dashed{stroke-dasharray:7 5}#chartlet-6583ef0b4fd59b75 .chartlet-line-dotted{stroke-dasharray:0 7}#chartlet-6583ef0b4fd59b75 .chartlet-line-thin.chartlet-line-dotted{stroke-dasharray:1 3}#chartlet-6583ef0b4fd59b75 .chartlet-line-bold{stroke-width:4.5}#chartlet-6583ef0b4fd59b75.chartlet-multiples .chartlet-line-bold{stroke-width:3}#chartlet-6583ef0b4fd59b75 .chartlet-zone{fill:var(--chartlet-zero);fill-opacity:.14;stroke:none}#chartlet-6583ef0b4fd59b75 .chartlet-marker{fill:var(--chartlet-text);stroke:var(--chartlet-background);stroke-width:1.5;stroke-linejoin:round}.chartlet-root{--chartlet-rise:#0a4f49;--chartlet-fall:#d03a0f}.chartlet-root.chartlet-theme-dark{--chartlet-rise:#99f6e4;--chartlet-fall:#e5484d}#chartlet-6583ef0b4fd59b75 .chartlet-wick{stroke-width:1.5}#chartlet-6583ef0b4fd59b75 .chartlet-wick-rise{stroke:var(--chartlet-rise)}#chartlet-6583ef0b4fd59b75 .chartlet-wick-fall{stroke:var(--chartlet-fall)}#chartlet-6583ef0b4fd59b75 .chartlet-candle{stroke-width:1.5}#chartlet-6583ef0b4fd59b75 .chartlet-candle-rise{fill:var(--chartlet-background);stroke:var(--chartlet-rise)}#chartlet-6583ef0b4fd59b75 .chartlet-candle-fall{fill:var(--chartlet-fall);stroke:var(--chartlet-fall)}</style><text x="36.515" y="30" text-anchor="start" class="chartlet-title">Kestrel Instruments (KSTL), daily share price</text><line x1="36.515" y1="376.5" x2="776" y2="376.5" class="chartlet-grid"/><text x="26.515" y="380.5" text-anchor="end" class="chartlet-tick">45</text><line x1="36.515" y1="321.6" x2="776" y2="321.6" class="chartlet-grid"/><text x="26.515" y="325.6" text-anchor="end" class="chartlet-tick">50</text><line x1="36.515" y1="266.7" x2="776" y2="266.7" class="chartlet-grid"/><text x="26.515" y="270.7" text-anchor="end" class="chartlet-tick">55</text><line x1="36.515" y1="211.8" x2="776" y2="211.8" class="chartlet-grid"/><text x="26.515" y="215.8" text-anchor="end" class="chartlet-tick">60</text><line x1="36.515" y1="156.9" x2="776" y2="156.9" class="chartlet-grid"/><text x="26.515" y="160.9" text-anchor="end" class="chartlet-tick">65</text><line x1="36.515" y1="102" x2="776" y2="102" class="chartlet-grid"/><text x="26.515" y="106" text-anchor="end" class="chartlet-tick">70</text><line x1="76.616" y1="102" x2="76.616" y2="376.5" class="chartlet-grid"/><line x1="178.919" y1="102" x2="178.919" y2="376.5" class="chartlet-grid"/><line x1="292.588" y1="102" x2="292.588" y2="376.5" class="chartlet-grid"/><line x1="394.891" y1="102" x2="394.891" y2="376.5" class="chartlet-grid"/><line x1="508.56" y1="102" x2="508.56" y2="376.5" class="chartlet-grid"/><line x1="622.23" y1="102" x2="622.23" y2="376.5" class="chartlet-grid"/><line x1="735.899" y1="102" x2="735.899" y2="376.5" class="chartlet-grid"/><text x="36.515" y="82" text-anchor="start" class="chartlet-axis-title">Price (USD)</text><line x1="36.515" y1="504" x2="776" y2="504" class="chartlet-zero"/><text x="26.515" y="508" text-anchor="end" class="chartlet-tick">0</text><line x1="36.515" y1="481.125" x2="776" y2="481.125" class="chartlet-grid"/><text x="26.515" y="485.125" text-anchor="end" class="chartlet-tick">2</text><line x1="36.515" y1="458.25" x2="776" y2="458.25" class="chartlet-grid"/><text x="26.515" y="462.25" text-anchor="end" class="chartlet-tick">4</text><line x1="36.515" y1="435.375" x2="776" y2="435.375" class="chartlet-grid"/><text x="26.515" y="439.375" text-anchor="end" class="chartlet-tick">6</text><line x1="36.515" y1="412.5" x2="776" y2="412.5" class="chartlet-grid"/><text x="26.515" y="416.5" text-anchor="end" class="chartlet-tick">8</text><line x1="76.616" y1="412.5" x2="76.616" y2="504" class="chartlet-grid"/><text x="76.616" y="528" text-anchor="middle" class="chartlet-tick">2026-01-12</text><line x1="178.919" y1="412.5" x2="178.919" y2="504" class="chartlet-grid"/><text x="178.919" y="528" text-anchor="middle" class="chartlet-tick">2026-01-26</text><line x1="292.588" y1="412.5" x2="292.588" y2="504" class="chartlet-grid"/><text x="292.588" y="528" text-anchor="middle" class="chartlet-tick">2026-02-09</text><line x1="394.891" y1="412.5" x2="394.891" y2="504" class="chartlet-grid"/><text x="394.891" y="528" text-anchor="middle" class="chartlet-tick">2026-02-23</text><line x1="508.56" y1="412.5" x2="508.56" y2="504" class="chartlet-grid"/><text x="508.56" y="528" text-anchor="middle" class="chartlet-tick">2026-03-09</text><line x1="622.23" y1="412.5" x2="622.23" y2="504" class="chartlet-grid"/><text x="622.23" y="528" text-anchor="middle" class="chartlet-tick">2026-03-23</text><line x1="735.899" y1="412.5" x2="735.899" y2="504" class="chartlet-grid"/><text x="735.899" y="528" text-anchor="middle" class="chartlet-tick">2026-04-06</text><text x="36.515" y="392.5" text-anchor="start" class="chartlet-axis-title">Volume (million shares)</text><line x1="42.515" y1="43" x2="42.515" y2="58" class="chartlet-wick chartlet-wick-rise"/><rect x="39.515" y="46" width="6" height="8" class="chartlet-candle chartlet-candle-rise"/><line x1="54.515" y1="43" x2="54.515" y2="58" class="chartlet-wick chartlet-wick-fall"/><rect x="51.515" y="48" width="6" height="7" class="chartlet-candle chartlet-candle-fall"/><text x="68.515" y="55" text-anchor="start" class="chartlet-legend">KSTL (hollow: rising, filled: falling)</text><polyline points="301.155,51 325.155,51" class="chartlet-line chartlet-line-series-1"/><text x="333.155" y="55" text-anchor="start" class="chartlet-legend">20-day average</text><rect x="444.355" y="51" width="24" height="8" class="chartlet-area chartlet-band-series-2"/><polyline points="444.355,51 468.355,51" class="chartlet-line chartlet-line-thin chartlet-line-series-2"/><text x="476.355" y="55" text-anchor="start" class="chartlet-legend">Volume</text><line x1="42.515" y1="309.632" x2="42.515" y2="333.349" class="chartlet-wick chartlet-wick-rise"/><rect x="38.537" y="319.404" width="7.957" height="10.541" class="chartlet-candle chartlet-candle-rise"><title>2026-01-07 – KSTL: open 49.24, high 51.09, low 48.93, close 50.20</title></rect><line x1="53.882" y1="312.377" x2="53.882" y2="323.796" class="chartlet-wick chartlet-wick-rise"/><rect x="49.904" y="313.145" width="7.957" height="3.733" class="chartlet-candle chartlet-candle-rise"><title>2026-01-08 – KSTL: open 50.43, high 50.84, low 49.80, close 50.77</title></rect><line x1="65.249" y1="308.973" x2="65.249" y2="317.977" class="chartlet-wick chartlet-wick-fall"/><rect x="61.271" y="309.083" width="7.957" height="3.623" class="chartlet-candle chartlet-candle-fall"><title>2026-01-09 – KSTL: open 51.14, high 51.15, low 50.33, close 50.81</title></rect><line x1="76.616" y1="290.966" x2="76.616" y2="315.232" class="chartlet-wick chartlet-wick-rise"/><rect x="72.638" y="299.311" width="7.957" height="15.043" class="chartlet-candle chartlet-candle-rise"><title>2026-01-12 – KSTL: open 50.66, high 52.79, low 50.58, close 52.03</title></rect><line x1="87.983" y1="287.782" x2="87.983" y2="303.922" class="chartlet-wick chartlet-wick-fall"/><rect x="84.005" y="293.93" width="7.957" height="2.416" class="chartlet-candle chartlet-candle-fall"><title>2026-01-13 – KSTL: open 52.52, high 53.08, low 51.61, close 52.30</title></rect><line x1="99.35" y1="287.123" x2="99.35" y2="306.338" class="chartlet-wick chartlet-wick-fall"/><rect x="95.372" y="293.93" width="7.957" height="7.247" class="chartlet-candle chartlet-candle-fall"><title>2026-01-14 – KSTL: open 52.52, high 53.14, low 51.39, close 51.86</title></rect><line x1="110.717" y1="295.138" x2="110.717" y2="301.616" class="chartlet-wick chartlet-wick-rise"/><rect x="106.738" y="298.542" width="7.957" height="1.976" class="chartlet-candle chartlet-candle-rise"><title>2026-01-15 – KSTL: open 51.92, high 52.41, low 51.82, close 52.10</title></rect><line x1="122.084" y1="287.782" x2="122.084" y2="302.056" class="chartlet-wick chartlet-wick-rise"/><rect x="118.105" y="292.393" width="7.957" height="6.149" class="chartlet-candle chartlet-candle-rise"><title>2026-01-16 – KSTL: open 52.10, high 53.08, low 51.78, close 52.66</title></rect><line x1="133.451" y1="288.001" x2="133.451" y2="294.15" class="chartlet-wick chartlet-wick-rise"/><rect x="129.472" y="290.307" width="7.957" height="3.733" class="chartlet-candle chartlet-candle-rise"><title>2026-01-20 – KSTL: open 52.51, high 53.06, low 52.50, close 52.85</title></rect><line x1="144.818" y1="277.68" x2="144.818" y2="306.997" class="chartlet-wick chartlet-wick-fall"/><rect x="140.839" y="288.77" width="7.957" height="2.745" class="chartlet-candle chartlet-candle-fall"><title>2026-01-21 – KSTL: open 52.99, high 54.00, low 51.33, close 52.74</title></rect><line x1="156.185" y1="285.586" x2="156.185" y2="292.613" class="chartlet-wick chartlet-wick-rise"/><rect x="152.206" y="287.123" width="7.957" height="2.855" class="chartlet-candle chartlet-candle-rise"><title>2026-01-22 – KSTL: open 52.88, high 53.28, low 52.64, close 53.14</title></rect><line x1="167.552" y1="271.092" x2="167.552" y2="291.185" class="chartlet-wick chartlet-wick-rise"/><rect x="163.573" y="285.695" width="7.957" height="3.404" class="chartlet-candle chartlet-candle-rise"><title>2026-01-23 – KSTL: open 52.96, high 54.60, low 52.77, close 53.27</title></rect><line x1="178.919" y1="286.244" x2="178.919" y2="303.483" class="chartlet-wick chartlet-wick-fall"/><rect x="174.94" y="286.293" width="7.957" height="1" class="chartlet-candle chartlet-candle-fall"><title>2026-01-26 – KSTL: open 53.19, high 53.22, low 51.65, close 53.15</title></rect><line x1="190.286" y1="280.645" x2="190.286" y2="297.334" class="chartlet-wick chartlet-wick-rise"/><rect x="186.307" y="280.974" width="7.957" height="10.541" class="chartlet-candle chartlet-candle-rise"><title>2026-01-27 – KSTL: open 52.74, high 53.73, low 52.21, close 53.70</title></rect><line x1="201.652" y1="270.104" x2="201.652" y2="289.648" class="chartlet-wick chartlet-wick-rise"/><rect x="197.674" y="272.3" width="7.957" height="15.262" class="chartlet-candle chartlet-candle-rise"><title>2026-01-28 – KSTL: open 53.10, high 54.69, low 52.91, close 54.49</title></rect><line x1="213.019" y1="264.724" x2="213.019" y2="291.295" class="chartlet-wick chartlet-wick-rise"/><rect x="209.041" y="271.202" width="7.957" height="11.419" class="chartlet-candle chartlet-candle-rise"><title>2026-01-29 – KSTL: open 53.55, high 55.18, low 52.76, close 54.59</title></rect><line x1="224.386" y1="263.406" x2="224.386" y2="285.695" class="chartlet-wick chartlet-wick-fall"/><rect x="220.408" y="270.543" width="7.957" height="14.274" class="chartlet-candle chartlet-candle-fall"><title>2026-01-30 – KSTL: open 54.65, high 55.30, low 53.27, close 53.35</title></rect><line x1="235.753" y1="275.264" x2="235.753" y2="293.491" class="chartlet-wick chartlet-wick-rise"/><rect x="231.775" y="275.813" width="7.957" height="8.455" class="chartlet-candle chartlet-candle-rise"><title>2026-02-02 – KSTL: open 53.40, high 54.22, low 52.56, close 54.17</title></rect><line x1="247.12" y1="258.355" x2="247.12" y2="273.068" class="chartlet-wick chartlet-wick-fall"/><rect x="243.142" y="265.273" width="7.957" height="2.306" class="chartlet-candle chartlet-candle-fall"><title>2026-02-03 – KSTL: open 55.13, high 55.76, low 54.42, close 54.92</title></rect><line x1="258.487" y1="261.649" x2="258.487" y2="268.786" class="chartlet-wick chartlet-wick-rise"/><rect x="254.509" y="263.077" width="7.957" height="1.867" class="chartlet-candle chartlet-candle-rise"><title>2026-02-04 – KSTL: open 55.16, high 55.46, low 54.81, close 55.33</title></rect><line x1="269.854" y1="254.842" x2="269.854" y2="281.194" class="chartlet-wick chartlet-wick-fall"/><rect x="265.876" y="260.661" width="7.957" height="14.384" class="chartlet-candle chartlet-candle-fall"><title>2026-02-05 – KSTL: open 55.55, high 56.08, low 53.68, close 54.24</title></rect><line x1="281.221" y1="250.23" x2="281.221" y2="277.79" class="chartlet-wick chartlet-wick-rise"/><rect x="277.243" y="259.124" width="7.957" height="13.066" class="chartlet-candle chartlet-candle-rise"><title>2026-02-06 – KSTL: open 54.50, high 56.50, low 53.99, close 55.69</title></rect><line x1="292.588" y1="246.607" x2="292.588" y2="272.3" class="chartlet-wick chartlet-wick-fall"/><rect x="288.61" y="256.159" width="7.957" height="10.76" class="chartlet-candle chartlet-candle-fall"><title>2026-02-09 – KSTL: open 55.96, high 56.83, low 54.49, close 54.98</title></rect><line x1="303.955" y1="245.289" x2="303.955" y2="276.033" class="chartlet-wick chartlet-wick-rise"/><rect x="299.977" y="257.257" width="7.957" height="10.321" class="chartlet-candle chartlet-candle-rise"><title>2026-02-10 – KSTL: open 54.92, high 56.95, low 54.15, close 55.86</title></rect><line x1="315.322" y1="253.195" x2="315.322" y2="270.214" class="chartlet-wick chartlet-wick-fall"/><rect x="311.344" y="255.72" width="7.957" height="5.38" class="chartlet-candle chartlet-candle-fall"><title>2026-02-11 – KSTL: open 56.00, high 56.23, low 54.68, close 55.51</title></rect><line x1="326.689" y1="234.858" x2="326.689" y2="256.489" class="chartlet-wick chartlet-wick-rise"/><rect x="322.711" y="243.642" width="7.957" height="11.749" class="chartlet-candle chartlet-candle-rise"><title>2026-02-12 – KSTL: open 56.03, high 57.90, low 55.93, close 57.10</title></rect><line x1="338.056" y1="231.784" x2="338.056" y2="251.767" class="chartlet-wick chartlet-wick-rise"/><rect x="334.077" y="232.552" width="7.957" height="10.651" class="chartlet-candle chartlet-candle-rise"><title>2026-02-13 – KSTL: open 57.14, high 58.18, low 56.36, close 58.11</title></rect><line x1="349.423" y1="176.225" x2="349.423" y2="239.03" class="chartlet-wick chartlet-wick-rise"/><rect x="345.444" y="187.424" width="7.957" height="46.665" class="chartlet-candle chartlet-candle-rise"><title>2026-02-17 – KSTL: open 57.97, high 63.24, low 57.52, close 62.22</title></rect><line x1="360.79" y1="182.374" x2="360.79" y2="193.354" class="chartlet-wick chartlet-wick-fall"/><rect x="356.811" y="187.424" width="7.957" height="5.49" class="chartlet-candle chartlet-candle-fall"><title>2026-02-18 – KSTL: open 62.22, high 62.68, low 61.68, close 61.72</title></rect><line x1="372.157" y1="179.958" x2="372.157" y2="198.734" class="chartlet-wick chartlet-wick-rise"/><rect x="368.178" y="188.462" width="7.957" height="1" class="chartlet-candle chartlet-candle-rise"><title>2026-02-19 – KSTL: open 62.08, high 62.90, low 61.19, close 62.08</title></rect><line x1="383.524" y1="180.397" x2="383.524" y2="208.067" class="chartlet-wick chartlet-wick-rise"/><rect x="379.545" y="186.985" width="7.957" height="9.223" class="chartlet-candle chartlet-candle-rise"><title>2026-02-20 – KSTL: open 61.42, high 62.86, low 60.34, close 62.26</title></rect><line x1="394.891" y1="185.887" x2="394.891" y2="198.844" class="chartlet-wick chartlet-wick-fall"/><rect x="390.912" y="186.985" width="7.957" height="11.639" class="chartlet-candle chartlet-candle-fall"><title>2026-02-23 – KSTL: open 62.26, high 62.36, low 61.18, close 61.20</title></rect><line x1="406.258" y1="188.632" x2="406.258" y2="194.891" class="chartlet-wick chartlet-wick-rise"/><rect x="402.279" y="188.852" width="7.957" height="2.855" class="chartlet-candle chartlet-candle-rise"><title>2026-02-24 – KSTL: open 61.83, high 62.11, low 61.54, close 62.09</title></rect><line x1="417.625" y1="190.389" x2="417.625" y2="201.589" class="chartlet-wick chartlet-wick-fall"/><rect x="413.646" y="193.683" width="7.957" height="1.427" class="chartlet-candle chartlet-candle-fall"><title>2026-02-25 – KSTL: open 61.65, high 61.95, low 60.93, close 61.52</title></rect><line x1="428.991" y1="186.436" x2="428.991" y2="196.648" class="chartlet-wick chartlet-wick-fall"/><rect x="425.013" y="191.267" width="7.957" height="5.38" class="chartlet-candle chartlet-candle-fall"><title>2026-02-26 – KSTL: open 61.87, high 62.31, low 61.38, close 61.38</title></rect><line x1="440.358" y1="189.511" x2="440.358" y2="204.992" class="chartlet-wick chartlet-wick-rise"/><rect x="436.38" y="198.953" width="7.957" height="2.196" class="chartlet-candle chartlet-candle-rise"><title>2026-02-27 – KSTL: open 60.97, high 62.03, low 60.62, close 61.17</title></rect><line x1="451.725" y1="197.746" x2="451.725" y2="216.741" class="chartlet-wick chartlet-wick-fall"/><rect x="447.747" y="202.467" width="7.957" height="5.051" class="chartlet-candle chartlet-candle-fall"><title>2026-03-02 – KSTL: open 60.85, high 61.28, low 59.55, close 60.39</title></rect><line x1="463.092" y1="191.816" x2="463.092" y2="219.157" class="chartlet-wick chartlet-wick-fall"/><rect x="459.114" y="206.09" width="7.957" height="11.09" class="chartlet-candle chartlet-candle-fall"><title>2026-03-03 – KSTL: open 60.52, high 61.82, low 59.33, close 59.51</title></rect><line x1="474.459" y1="212.678" x2="474.459" y2="246.497" class="chartlet-wick chartlet-wick-fall"/><rect x="470.481" y="214.435" width="7.957" height="18.556" class="chartlet-candle chartlet-candle-fall"><title>2026-03-04 – KSTL: open 59.76, high 59.92, low 56.84, close 58.07</title></rect><line x1="485.826" y1="226.623" x2="485.826" y2="239.36" class="chartlet-wick chartlet-wick-rise"/><rect x="481.848" y="231.344" width="7.957" height="3.404" class="chartlet-candle chartlet-candle-rise"><title>2026-03-05 – KSTL: open 57.91, high 58.65, low 57.49, close 58.22</title></rect><line x1="497.193" y1="218.498" x2="497.193" y2="228.929" class="chartlet-wick chartlet-wick-rise"/><rect x="493.215" y="222.451" width="7.957" height="3.843" class="chartlet-candle chartlet-candle-rise"><title>2026-03-06 – KSTL: open 58.68, high 59.39, low 58.44, close 59.03</title></rect><line x1="508.56" y1="206.2" x2="508.56" y2="220.255" class="chartlet-wick chartlet-wick-rise"/><rect x="504.582" y="208.067" width="7.957" height="9.333" class="chartlet-candle chartlet-candle-rise"><title>2026-03-09 – KSTL: open 59.49, high 60.51, low 59.23, close 60.34</title></rect><line x1="519.927" y1="191.597" x2="519.927" y2="228.599" class="chartlet-wick chartlet-wick-fall"/><rect x="515.949" y="206.2" width="7.957" height="16.799" class="chartlet-candle chartlet-candle-fall"><title>2026-03-10 – KSTL: open 60.51, high 61.84, low 58.47, close 58.98</title></rect><line x1="531.294" y1="200.93" x2="531.294" y2="228.929" class="chartlet-wick chartlet-wick-rise"/><rect x="527.316" y="204.334" width="7.957" height="19.215" class="chartlet-candle chartlet-candle-rise"><title>2026-03-11 – KSTL: open 58.93, high 60.99, low 58.44, close 60.68</title></rect><line x1="542.661" y1="198.185" x2="542.661" y2="203.785" class="chartlet-wick chartlet-wick-fall"/><rect x="538.683" y="202.9" width="7.957" height="1" class="chartlet-candle chartlet-candle-fall"><title>2026-03-12 – KSTL: open 60.78, high 61.24, low 60.73, close 60.75</title></rect><line x1="554.028" y1="199.502" x2="554.028" y2="214.984" class="chartlet-wick chartlet-wick-fall"/><rect x="550.05" y="204.883" width="7.957" height="9.553" class="chartlet-candle chartlet-candle-fall"><title>2026-03-13 – KSTL: open 60.63, high 61.12, low 59.71, close 59.76</title></rect><line x1="565.395" y1="197.306" x2="565.395" y2="215.753" class="chartlet-wick chartlet-wick-fall"/><rect x="561.416" y="204.114" width="7.957" height="7.796" class="chartlet-candle chartlet-candle-fall"><title>2026-03-16 – KSTL: open 60.70, high 61.32, low 59.64, close 59.99</title></rect><line x1="576.762" y1="193.244" x2="576.762" y2="212.678" class="chartlet-wick chartlet-wick-rise"/><rect x="572.783" y="203.345" width="7.957" height="6.698" class="chartlet-candle chartlet-candle-rise"><title>2026-03-17 – KSTL: open 60.16, high 61.69, low 59.92, close 60.77</title></rect><line x1="588.129" y1="198.953" x2="588.129" y2="212.788" class="chartlet-wick chartlet-wick-rise"/><rect x="584.15" y="205.102" width="7.957" height="5.71" class="chartlet-candle chartlet-candle-rise"><title>2026-03-18 – KSTL: open 60.09, high 61.17, low 59.91, close 60.61</title></rect><line x1="599.496" y1="176.115" x2="599.496" y2="202.247" class="chartlet-wick chartlet-wick-rise"/><rect x="595.517" y="184.57" width="7.957" height="13.615" class="chartlet-candle chartlet-candle-rise"><title>2026-03-19 – KSTL: open 61.24, high 63.25, low 60.87, close 62.48</title></rect><line x1="610.863" y1="177.872" x2="610.863" y2="198.844" class="chartlet-wick chartlet-wick-rise"/><rect x="606.884" y="183.691" width="7.957" height="2.416" class="chartlet-candle chartlet-candle-rise"><title>2026-03-20 – KSTL: open 62.34, high 63.09, low 61.18, close 62.56</title></rect><line x1="622.23" y1="178.64" x2="622.23" y2="206.09" class="chartlet-wick chartlet-wick-fall"/><rect x="618.251" y="188.852" width="7.957" height="11.309" class="chartlet-candle chartlet-candle-fall"><title>2026-03-23 – KSTL: open 62.09, high 63.02, low 60.52, close 61.06</title></rect><line x1="633.597" y1="193.354" x2="633.597" y2="216.521" class="chartlet-wick chartlet-wick-rise"/><rect x="629.618" y="194.891" width="7.957" height="8.564" class="chartlet-candle chartlet-candle-rise"><title>2026-03-24 – KSTL: open 60.76, high 61.68, low 59.57, close 61.54</title></rect><line x1="644.964" y1="188.522" x2="644.964" y2="193.683" class="chartlet-wick chartlet-wick-rise"/><rect x="640.985" y="192.414" width="7.957" height="1" class="chartlet-candle chartlet-candle-rise"><title>2026-03-25 – KSTL: open 61.72, high 62.12, low 61.65, close 61.72</title></rect><line x1="656.331" y1="185.009" x2="656.331" y2="192.475" class="chartlet-wick chartlet-wick-rise"/><rect x="652.352" y="186.217" width="7.957" height="4.282" class="chartlet-candle chartlet-candle-rise"><title>2026-03-26 – KSTL: open 61.94, high 62.44, low 61.76, close 62.33</title></rect><line x1="667.697" y1="184.57" x2="667.697" y2="189.401" class="chartlet-wick chartlet-wick-rise"/><rect x="663.719" y="188.407" width="7.957" height="1" class="chartlet-candle chartlet-candle-rise"><title>2026-03-27 – KSTL: open 62.04, high 62.48, low 62.04, close 62.13</title></rect><line x1="679.064" y1="185.228" x2="679.064" y2="189.181" class="chartlet-wick chartlet-wick-rise"/><rect x="675.086" y="186.217" width="7.957" height="2.196" class="chartlet-candle chartlet-candle-rise"><title>2026-03-30 – KSTL: open 62.13, high 62.42, low 62.06, close 62.33</title></rect><line x1="690.431" y1="174.907" x2="690.431" y2="183.362" class="chartlet-wick chartlet-wick-rise"/><rect x="686.453" y="177.542" width="7.957" height="4.721" class="chartlet-candle chartlet-candle-rise"><title>2026-03-31 – KSTL: open 62.69, high 63.36, low 62.59, close 63.12</title></rect><line x1="701.798" y1="184.46" x2="701.798" y2="199.393" class="chartlet-wick chartlet-wick-fall"/><rect x="697.82" y="184.789" width="7.957" height="9.004" class="chartlet-candle chartlet-candle-fall"><title>2026-04-01 – KSTL: open 62.46, high 62.49, low 61.13, close 61.64</title></rect><line x1="713.165" y1="197.636" x2="713.165" y2="223.549" class="chartlet-wick chartlet-wick-fall"/><rect x="709.187" y="203.894" width="7.957" height="10.102" class="chartlet-candle chartlet-candle-fall"><title>2026-04-02 – KSTL: open 60.72, high 61.29, low 58.93, close 59.80</title></rect><line x1="724.532" y1="213.886" x2="724.532" y2="232.991" class="chartlet-wick chartlet-wick-fall"/><rect x="720.554" y="216.961" width="7.957" height="12.956" class="chartlet-candle chartlet-candle-fall"><title>2026-04-03 – KSTL: open 59.53, high 59.81, low 58.07, close 58.35</title></rect><line x1="735.899" y1="211.91" x2="735.899" y2="230.905" class="chartlet-wick chartlet-wick-rise"/><rect x="731.921" y="212.02" width="7.957" height="15.262" class="chartlet-candle chartlet-candle-rise"><title>2026-04-06 – KSTL: open 58.59, high 59.99, low 58.26, close 59.98</title></rect><line x1="747.266" y1="191.377" x2="747.266" y2="209.055" class="chartlet-wick chartlet-wick-rise"/><rect x="743.288" y="197.965" width="7.957" height="10.102" class="chartlet-candle chartlet-candle-rise"><title>2026-04-07 – KSTL: open 60.34, high 61.86, low 60.25, close 61.26</title></rect><line x1="758.633" y1="190.279" x2="758.633" y2="201.698" class="chartlet-wick chartlet-wick-fall"/><rect x="754.655" y="193.903" width="7.957" height="2.306" class="chartlet-candle chartlet-candle-fall"><title>2026-04-08 – KSTL: open 61.63, high 61.96, low 60.92, close 61.42</title></rect><line x1="770" y1="164.476" x2="770" y2="192.036" class="chartlet-wick chartlet-wick-rise"/><rect x="766.022" y="165.794" width="7.957" height="25.693" class="chartlet-candle chartlet-candle-rise"><title>2026-04-09 – KSTL: open 61.85, high 64.31, low 61.80, close 64.19</title></rect><polyline points="42.515,326.102 53.882,324.565 65.249,323.137 76.616,321.38 87.983,319.404 99.35,317.757 110.717,316.11 122.084,313.694 133.451,311.279 144.818,308.644 156.185,306.008 167.552,303.593 178.919,302.056 190.286,300.299 201.652,298.213 213.019,297.005 224.386,295.797 235.753,294.37 247.12,292.613 258.487,289.538 269.854,287.342 281.221,284.597 292.588,282.292 303.955,280.205 315.322,278.449 326.689,275.594 338.056,272.3 349.423,267.029 360.79,262.198 372.157,257.038 383.524,251.987 394.891,247.705 406.258,242.764 417.625,238.481 428.991,234.638 440.358,231.015 451.725,227.172 463.092,224.317 474.459,222.56 485.826,220.913 497.193,218.278 508.56,215.753 519.927,213.557 531.294,210.922 542.661,208.067 554.028,206.639 565.395,205.541 576.762,206.31 588.129,206.969 599.496,206.749 610.863,206.53 622.23,206.639 633.597,206.969 644.964,206.859 656.331,206.31 667.697,205.761 679.064,204.773 690.431,202.796 701.798,200.82 713.165,199.942 724.532,200.271 735.899,200.491 747.266,199.283 758.633,198.844 770,196.977" class="chartlet-line chartlet-line-series-1"/><circle cx="42.515" cy="326.102" r="4" class="chartlet-hit"><title>2026-01-07 – 20-day average: 49.59</title></circle><circle cx="53.882" cy="324.565" r="4" class="chartlet-hit"><title>2026-01-08 – 20-day average: 49.73</title></circle><circle cx="65.249" cy="323.137" r="4" class="chartlet-hit"><title>2026-01-09 – 20-day average: 49.86</title></circle><circle cx="76.616" cy="321.38" r="4" class="chartlet-hit"><title>2026-01-12 – 20-day average: 50.02</title></circle><circle cx="87.983" cy="319.404" r="4" class="chartlet-hit"><title>2026-01-13 – 20-day average: 50.20</title></circle><circle cx="99.35" cy="317.757" r="4" class="chartlet-hit"><title>2026-01-14 – 20-day average: 50.35</title></circle><circle cx="110.717" cy="316.11" r="4" class="chartlet-hit"><title>2026-01-15 – 20-day average: 50.50</title></circle><circle cx="122.084" cy="313.694" r="4" class="chartlet-hit"><title>2026-01-16 – 20-day average: 50.72</title></circle><circle cx="133.451" cy="311.279" r="4" class="chartlet-hit"><title>2026-01-20 – 20-day average: 50.94</title></circle><circle cx="144.818" cy="308.644" r="4" class="chartlet-hit"><title>2026-01-21 – 20-day average: 51.18</title></circle><circle cx="156.185" cy="306.008" r="4" class="chartlet-hit"><title>2026-01-22 – 20-day average: 51.42</title></circle><circle cx="167.552" cy="303.593" r="4" class="chartlet-hit"><title>2026-01-23 – 20-day average: 51.64</title></circle><circle cx="178.919" cy="302.056" r="4" class="chartlet-hit"><title>2026-01-26 – 20-day average: 51.78</title></circle><circle cx="190.286" cy="300.299" r="4" class="chartlet-hit"><title>2026-01-27 – 20-day average: 51.94</title></circle><circle cx="201.652" cy="298.213" r="4" class="chartlet-hit"><title>2026-01-28 – 20-day average: 52.13</title></circle><circle cx="213.019" cy="297.005" r="4" class="chartlet-hit"><title>2026-01-29 – 20-day average: 52.24</title></circle><circle cx="224.386" cy="295.797" r="4" class="chartlet-hit"><title>2026-01-30 – 20-day average: 52.35</title></circle><circle cx="235.753" cy="294.37" r="4" class="chartlet-hit"><title>2026-02-02 – 20-day average: 52.48</title></circle><circle cx="247.12" cy="292.613" r="4" class="chartlet-hit"><title>2026-02-03 – 20-day average: 52.64</title></circle><circle cx="258.487" cy="289.538" r="4" class="chartlet-hit"><title>2026-02-04 – 20-day average: 52.92</title></circle><circle cx="269.854" cy="287.342" r="4" class="chartlet-hit"><title>2026-02-05 – 20-day average: 53.12</title></circle><circle cx="281.221" cy="284.597" r="4" class="chartlet-hit"><title>2026-02-06 – 20-day average: 53.37</title></circle><circle cx="292.588" cy="282.292" r="4" class="chartlet-hit"><title>2026-02-09 – 20-day average: 53.58</title></circle><circle cx="303.955" cy="280.205" r="4" class="chartlet-hit"><title>2026-02-10 – 20-day average: 53.77</title></circle><circle cx="315.322" cy="278.449" r="4" class="chartlet-hit"><title>2026-02-11 – 20-day average: 53.93</title></circle><circle cx="326.689" cy="275.594" r="4" class="chartlet-hit"><title>2026-02-12 – 20-day average: 54.19</title></circle><circle cx="338.056" cy="272.3" r="4" class="chartlet-hit"><title>2026-02-13 – 20-day average: 54.49</title></circle><circle cx="349.423" cy="267.029" r="4" class="chartlet-hit"><title>2026-02-17 – 20-day average: 54.97</title></circle><circle cx="360.79" cy="262.198" r="4" class="chartlet-hit"><title>2026-02-18 – 20-day average: 55.41</title></circle><circle cx="372.157" cy="257.038" r="4" class="chartlet-hit"><title>2026-02-19 – 20-day average: 55.88</title></circle><circle cx="383.524" cy="251.987" r="4" class="chartlet-hit"><title>2026-02-20 – 20-day average: 56.34</title></circle><circle cx="394.891" cy="247.705" r="4" class="chartlet-hit"><title>2026-02-23 – 20-day average: 56.73</title></circle><circle cx="406.258" cy="242.764" r="4" class="chartlet-hit"><title>2026-02-24 – 20-day average: 57.18</title></circle><circle cx="417.625" cy="238.481" r="4" class="chartlet-hit"><title>2026-02-25 – 20-day average: 57.57</title></circle><circle cx="428.991" cy="234.638" r="4" class="chartlet-hit"><title>2026-02-26 – 20-day average: 57.92</title></circle><circle cx="440.358" cy="231.015" r="4" class="chartlet-hit"><title>2026-02-27 – 20-day average: 58.25</title></circle><circle cx="451.725" cy="227.172" r="4" class="chartlet-hit"><title>2026-03-02 – 20-day average: 58.60</title></circle><circle cx="463.092" cy="224.317" r="4" class="chartlet-hit"><title>2026-03-03 – 20-day average: 58.86</title></circle><circle cx="474.459" cy="222.56" r="4" class="chartlet-hit"><title>2026-03-04 – 20-day average: 59.02</title></circle><circle cx="485.826" cy="220.913" r="4" class="chartlet-hit"><title>2026-03-05 – 20-day average: 59.17</title></circle><circle cx="497.193" cy="218.278" r="4" class="chartlet-hit"><title>2026-03-06 – 20-day average: 59.41</title></circle><circle cx="508.56" cy="215.753" r="4" class="chartlet-hit"><title>2026-03-09 – 20-day average: 59.64</title></circle><circle cx="519.927" cy="213.557" r="4" class="chartlet-hit"><title>2026-03-10 – 20-day average: 59.84</title></circle><circle cx="531.294" cy="210.922" r="4" class="chartlet-hit"><title>2026-03-11 – 20-day average: 60.08</title></circle><circle cx="542.661" cy="208.067" r="4" class="chartlet-hit"><title>2026-03-12 – 20-day average: 60.34</title></circle><circle cx="554.028" cy="206.639" r="4" class="chartlet-hit"><title>2026-03-13 – 20-day average: 60.47</title></circle><circle cx="565.395" cy="205.541" r="4" class="chartlet-hit"><title>2026-03-16 – 20-day average: 60.57</title></circle><circle cx="576.762" cy="206.31" r="4" class="chartlet-hit"><title>2026-03-17 – 20-day average: 60.50</title></circle><circle cx="588.129" cy="206.969" r="4" class="chartlet-hit"><title>2026-03-18 – 20-day average: 60.44</title></circle><circle cx="599.496" cy="206.749" r="4" class="chartlet-hit"><title>2026-03-19 – 20-day average: 60.46</title></circle><circle cx="610.863" cy="206.53" r="4" class="chartlet-hit"><title>2026-03-20 – 20-day average: 60.48</title></circle><circle cx="622.23" cy="206.639" r="4" class="chartlet-hit"><title>2026-03-23 – 20-day average: 60.47</title></circle><circle cx="633.597" cy="206.969" r="4" class="chartlet-hit"><title>2026-03-24 – 20-day average: 60.44</title></circle><circle cx="644.964" cy="206.859" r="4" class="chartlet-hit"><title>2026-03-25 – 20-day average: 60.45</title></circle><circle cx="656.331" cy="206.31" r="4" class="chartlet-hit"><title>2026-03-26 – 20-day average: 60.50</title></circle><circle cx="667.697" cy="205.761" r="4" class="chartlet-hit"><title>2026-03-27 – 20-day average: 60.55</title></circle><circle cx="679.064" cy="204.773" r="4" class="chartlet-hit"><title>2026-03-30 – 20-day average: 60.64</title></circle><circle cx="690.431" cy="202.796" r="4" class="chartlet-hit"><title>2026-03-31 – 20-day average: 60.82</title></circle><circle cx="701.798" cy="200.82" r="4" class="chartlet-hit"><title>2026-04-01 – 20-day average: 61.00</title></circle><circle cx="713.165" cy="199.942" r="4" class="chartlet-hit"><title>2026-04-02 – 20-day average: 61.08</title></circle><circle cx="724.532" cy="200.271" r="4" class="chartlet-hit"><title>2026-04-03 – 20-day average: 61.05</title></circle><circle cx="735.899" cy="200.491" r="4" class="chartlet-hit"><title>2026-04-06 – 20-day average: 61.03</title></circle><circle cx="747.266" cy="199.283" r="4" class="chartlet-hit"><title>2026-04-07 – 20-day average: 61.14</title></circle><circle cx="758.633" cy="198.844" r="4" class="chartlet-hit"><title>2026-04-08 – 20-day average: 61.18</title></circle><circle cx="770" cy="196.977" r="4" class="chartlet-hit"><title>2026-04-09 – 20-day average: 61.35</title></circle><polyline points="349.423,170.549 356.323,158.249 342.523,158.249 349.423,170.549" class="chartlet-marker"><title>Quarterly results: 2026-02-17, 64.44</title></polyline><text x="360.923" y="167.049" text-anchor="start" class="chartlet-rule-label">Quarterly results</text><polyline points="42.515,478.151 53.882,482.498 65.249,474.034 76.616,477.007 87.983,485.7 99.35,476.207 110.717,478.151 122.084,468.201 133.451,474.377 144.818,484.899 156.185,475.978 167.552,482.154 178.919,482.269 190.286,473.004 201.652,472.89 213.019,473.691 224.386,475.178 235.753,472.547 247.12,480.553 258.487,487.53 269.854,483.641 281.221,476.664 292.588,469.001 303.955,477.923 315.322,483.641 326.689,480.896 338.056,478.723 349.423,426.339 360.79,457.907 372.157,483.298 383.524,472.204 394.891,479.867 406.258,474.262 417.625,487.988 428.991,474.262 440.358,474.834 451.725,479.181 463.092,480.21 474.459,479.524 485.826,475.749 497.193,489.817 508.56,467.743 519.927,471.861 531.294,479.752 542.661,480.782 554.028,481.811 565.395,491.19 576.762,478.723 588.129,482.269 599.496,475.063 610.863,474.148 622.23,467.514 633.597,481.697 644.964,477.465 656.331,474.949 667.697,480.439 679.064,486.043 690.431,476.55 701.798,473.691 713.165,479.181 724.532,475.521 735.899,467.629 747.266,473.691 758.633,480.324 770,460.08 770,504 42.515,504" class="chartlet-area chartlet-band-series-2"/><polyline points="42.515,478.151 53.882,482.498 65.249,474.034 76.616,477.007 87.983,485.7 99.35,476.207 110.717,478.151 122.084,468.201 133.451,474.377 144.818,484.899 156.185,475.978 167.552,482.154 178.919,482.269 190.286,473.004 201.652,472.89 213.019,473.691 224.386,475.178 235.753,472.547 247.12,480.553 258.487,487.53 269.854,483.641 281.221,476.664 292.588,469.001 303.955,477.923 315.322,483.641 326.689,480.896 338.056,478.723 349.423,426.339 360.79,457.907 372.157,483.298 383.524,472.204 394.891,479.867 406.258,474.262 417.625,487.988 428.991,474.262 440.358,474.834 451.725,479.181 463.092,480.21 474.459,479.524 485.826,475.749 497.193,489.817 508.56,467.743 519.927,471.861 531.294,479.752 542.661,480.782 554.028,481.811 565.395,491.19 576.762,478.723 588.129,482.269 599.496,475.063 610.863,474.148 622.23,467.514 633.597,481.697 644.964,477.465 656.331,474.949 667.697,480.439 679.064,486.043 690.431,476.55 701.798,473.691 713.165,479.181 724.532,475.521 735.899,467.629 747.266,473.691 758.633,480.324 770,460.08" class="chartlet-line chartlet-line-thin chartlet-line-series-2"/><circle cx="42.515" cy="478.151" r="4" class="chartlet-hit"><title>2026-01-07 – Volume: 2.3</title></circle><circle cx="53.882" cy="482.498" r="4" class="chartlet-hit"><title>2026-01-08 – Volume: 1.9</title></circle><circle cx="65.249" cy="474.034" r="4" class="chartlet-hit"><title>2026-01-09 – Volume: 2.6</title></circle><circle cx="76.616" cy="477.007" r="4" class="chartlet-hit"><title>2026-01-12 – Volume: 2.4</title></circle><circle cx="87.983" cy="485.7" r="4" class="chartlet-hit"><title>2026-01-13 – Volume: 1.6</title></circle><circle cx="99.35" cy="476.207" r="4" class="chartlet-hit"><title>2026-01-14 – Volume: 2.4</title></circle><circle cx="110.717" cy="478.151" r="4" class="chartlet-hit"><title>2026-01-15 – Volume: 2.3</title></circle><circle cx="122.084" cy="468.201" r="4" class="chartlet-hit"><title>2026-01-16 – Volume: 3.1</title></circle><circle cx="133.451" cy="474.377" r="4" class="chartlet-hit"><title>2026-01-20 – Volume: 2.6</title></circle><circle cx="144.818" cy="484.899" r="4" class="chartlet-hit"><title>2026-01-21 – Volume: 1.7</title></circle><circle cx="156.185" cy="475.978" r="4" class="chartlet-hit"><title>2026-01-22 – Volume: 2.5</title></circle><circle cx="167.552" cy="482.154" r="4" class="chartlet-hit"><title>2026-01-23 – Volume: 1.9</title></circle><circle cx="178.919" cy="482.269" r="4" class="chartlet-hit"><title>2026-01-26 – Volume: 1.9</title></circle><circle cx="190.286" cy="473.004" r="4" class="chartlet-hit"><title>2026-01-27 – Volume: 2.7</title></circle><circle cx="201.652" cy="472.89" r="4" class="chartlet-hit"><title>2026-01-28 – Volume: 2.7</title></circle><circle cx="213.019" cy="473.691" r="4" class="chartlet-hit"><title>2026-01-29 – Volume: 2.6</title></circle><circle cx="224.386" cy="475.178" r="4" class="chartlet-hit"><title>2026-01-30 – Volume: 2.5</title></circle><circle cx="235.753" cy="472.547" r="4" class="chartlet-hit"><title>2026-02-02 – Volume: 2.8</title></circle><circle cx="247.12" cy="480.553" r="4" class="chartlet-hit"><title>2026-02-03 – Volume: 2.0</title></circle><circle cx="258.487" cy="487.53" r="4" class="chartlet-hit"><title>2026-02-04 – Volume: 1.4</title></circle><circle cx="269.854" cy="483.641" r="4" class="chartlet-hit"><title>2026-02-05 – Volume: 1.8</title></circle><circle cx="281.221" cy="476.664" r="4" class="chartlet-hit"><title>2026-02-06 – Volume: 2.4</title></circle><circle cx="292.588" cy="469.001" r="4" class="chartlet-hit"><title>2026-02-09 – Volume: 3.1</title></circle><circle cx="303.955" cy="477.923" r="4" class="chartlet-hit"><title>2026-02-10 – Volume: 2.3</title></circle><circle cx="315.322" cy="483.641" r="4" class="chartlet-hit"><title>2026-02-11 – Volume: 1.8</title></circle><circle cx="326.689" cy="480.896" r="4" class="chartlet-hit"><title>2026-02-12 – Volume: 2.0</title></circle><circle cx="338.056" cy="478.723" r="4" class="chartlet-hit"><title>2026-02-13 – Volume: 2.2</title></circle><circle cx="349.423" cy="426.339" r="4" class="chartlet-hit"><title>2026-02-17 – Volume: 6.8</title></circle><circle cx="360.79" cy="457.907" r="4" class="chartlet-hit"><title>2026-02-18 – Volume: 4.0</title></circle><circle cx="372.157" cy="483.298" r="4" class="chartlet-hit"><title>2026-02-19 – Volume: 1.8</title></circle><circle cx="383.524" cy="472.204" r="4" class="chartlet-hit"><title>2026-02-20 – Volume: 2.8</title></circle><circle cx="394.891" cy="479.867" r="4" class="chartlet-hit"><title>2026-02-23 – Volume: 2.1</title></circle><circle cx="406.258" cy="474.262" r="4" class="chartlet-hit"><title>2026-02-24 – Volume: 2.6</title></circle><circle cx="417.625" cy="487.988" r="4" class="chartlet-hit"><title>2026-02-25 – Volume: 1.4</title></circle><circle cx="428.991" cy="474.262" r="4" class="chartlet-hit"><title>2026-02-26 – Volume: 2.6</title></circle><circle cx="440.358" cy="474.834" r="4" class="chartlet-hit"><title>2026-02-27 – Volume: 2.5</title></circle><circle cx="451.725" cy="479.181" r="4" class="chartlet-hit"><title>2026-03-02 – Volume: 2.2</title></circle><circle cx="463.092" cy="480.21" r="4" class="chartlet-hit"><title>2026-03-03 – Volume: 2.1</title></circle><circle cx="474.459" cy="479.524" r="4" class="chartlet-hit"><title>2026-03-04 – Volume: 2.1</title></circle><circle cx="485.826" cy="475.749" r="4" class="chartlet-hit"><title>2026-03-05 – Volume: 2.5</title></circle><circle cx="497.193" cy="489.817" r="4" class="chartlet-hit"><title>2026-03-06 – Volume: 1.2</title></circle><circle cx="508.56" cy="467.743" r="4" class="chartlet-hit"><title>2026-03-09 – Volume: 3.2</title></circle><circle cx="519.927" cy="471.861" r="4" class="chartlet-hit"><title>2026-03-10 – Volume: 2.8</title></circle><circle cx="531.294" cy="479.752" r="4" class="chartlet-hit"><title>2026-03-11 – Volume: 2.1</title></circle><circle cx="542.661" cy="480.782" r="4" class="chartlet-hit"><title>2026-03-12 – Volume: 2.0</title></circle><circle cx="554.028" cy="481.811" r="4" class="chartlet-hit"><title>2026-03-13 – Volume: 1.9</title></circle><circle cx="565.395" cy="491.19" r="4" class="chartlet-hit"><title>2026-03-16 – Volume: 1.1</title></circle><circle cx="576.762" cy="478.723" r="4" class="chartlet-hit"><title>2026-03-17 – Volume: 2.2</title></circle><circle cx="588.129" cy="482.269" r="4" class="chartlet-hit"><title>2026-03-18 – Volume: 1.9</title></circle><circle cx="599.496" cy="475.063" r="4" class="chartlet-hit"><title>2026-03-19 – Volume: 2.5</title></circle><circle cx="610.863" cy="474.148" r="4" class="chartlet-hit"><title>2026-03-20 – Volume: 2.6</title></circle><circle cx="622.23" cy="467.514" r="4" class="chartlet-hit"><title>2026-03-23 – Volume: 3.2</title></circle><circle cx="633.597" cy="481.697" r="4" class="chartlet-hit"><title>2026-03-24 – Volume: 1.9</title></circle><circle cx="644.964" cy="477.465" r="4" class="chartlet-hit"><title>2026-03-25 – Volume: 2.3</title></circle><circle cx="656.331" cy="474.949" r="4" class="chartlet-hit"><title>2026-03-26 – Volume: 2.5</title></circle><circle cx="667.697" cy="480.439" r="4" class="chartlet-hit"><title>2026-03-27 – Volume: 2.1</title></circle><circle cx="679.064" cy="486.043" r="4" class="chartlet-hit"><title>2026-03-30 – Volume: 1.6</title></circle><circle cx="690.431" cy="476.55" r="4" class="chartlet-hit"><title>2026-03-31 – Volume: 2.4</title></circle><circle cx="701.798" cy="473.691" r="4" class="chartlet-hit"><title>2026-04-01 – Volume: 2.6</title></circle><circle cx="713.165" cy="479.181" r="4" class="chartlet-hit"><title>2026-04-02 – Volume: 2.2</title></circle><circle cx="724.532" cy="475.521" r="4" class="chartlet-hit"><title>2026-04-03 – Volume: 2.5</title></circle><circle cx="735.899" cy="467.629" r="4" class="chartlet-hit"><title>2026-04-06 – Volume: 3.2</title></circle><circle cx="747.266" cy="473.691" r="4" class="chartlet-hit"><title>2026-04-07 – Volume: 2.6</title></circle><circle cx="758.633" cy="480.324" r="4" class="chartlet-hit"><title>2026-04-08 – Volume: 2.1</title></circle><circle cx="770" cy="460.08" r="4" class="chartlet-hit"><title>2026-04-09 – Volume: 3.8</title></circle><text x="406.258" y="546" text-anchor="middle" class="chartlet-axis-title">Trading day</text></svg>