<svg xmlns="http://www.w3.org/2000/svg" width="1820" height="540" viewBox="0 0 1820 540" id="chartlet-55d7d182de2564d7" role="img" aria-labelledby="chartlet-55d7d182de2564d7-title chartlet-55d7d182de2564d7-description" class="chartlet-root"><title id="chartlet-55d7d182de2564d7-title">Web shop on one cloud region</title><desc id="chartlet-55d7d182de2564d7-description">Architecture diagram with 11 components and 11 connections in 3 boundaries. Cloud region eu-central-1: Invoices, Private network. Private network (in Cloud region eu-central-1): Shop API, Session cache, Order events, Order worker, Sign-in, Data zone. Data zone (in Private network): Orders. Main path: Customer → Web shop → Shop API → Order events → Order worker → Payment provider. Customer (person): connects to Web shop (browses). Web shop (frontend): connects to Content network (loads assets, via HTTPS) and Shop API (calls, via HTTPS/JSON). Shop API (service): connects to Session cache (sessions, via RESP), Sign-in (checks token, via OIDC), Orders (reads, writes, via SQL/TLS) and Order events (publishes, via AMQP). Content network (external system): no outgoing connection. Session cache (cache): no outgoing connection. Order events (queue): connects to Order worker (delivers). Sign-in (security): no outgoing connection. Order worker (service): connects to Payment provider (charges, via HTTPS), Invoices (stores PDF, via S3 API) and Orders (updates, via SQL/TLS). Orders (database): no outgoing connection. Invoices (storage): no outgoing connection. Payment provider (external system): no outgoing connection.</desc><style>.chartlet-root{--chartlet-text:#172033;--chartlet-muted:#344054;--chartlet-grid:#d9dee8;--chartlet-zero:#667085;--chartlet-accent:#2563eb;--chartlet-background:#fff;--chartlet-color-1:#2563eb;--chartlet-color-2:#c2410c;--chartlet-color-3:#475569;--chartlet-color-4:#111827;max-width:100%;height:auto;font-family:Inter,ui-sans-serif,system-ui,sans-serif;color:var(--chartlet-text)}#chartlet-55d7d182de2564d7 .chartlet-title{font-size:22px;font-weight:650;fill:var(--chartlet-text)}#chartlet-55d7d182de2564d7 .chartlet-label,#chartlet-55d7d182de2564d7 .chartlet-tick,#chartlet-55d7d182de2564d7 .chartlet-value,#chartlet-55d7d182de2564d7 .chartlet-value-inverse,#chartlet-55d7d182de2564d7 .chartlet-axis-title{font-size:12px;fill:var(--chartlet-muted)}#chartlet-55d7d182de2564d7 .chartlet-value,#chartlet-55d7d182de2564d7 .chartlet-value-inverse{font-weight:600}#chartlet-55d7d182de2564d7 .chartlet-value{fill:var(--chartlet-text)}#chartlet-55d7d182de2564d7 .chartlet-value-inverse{fill:var(--chartlet-background)}#chartlet-55d7d182de2564d7 .chartlet-axis-title{font-weight:600}#chartlet-55d7d182de2564d7 .chartlet-grid{stroke:var(--chartlet-grid);stroke-width:1}#chartlet-55d7d182de2564d7 .chartlet-zero{stroke:var(--chartlet-zero);stroke-width:1.5}#chartlet-55d7d182de2564d7 .chartlet-bar,#chartlet-55d7d182de2564d7 .chartlet-point{fill:var(--chartlet-accent)}#chartlet-55d7d182de2564d7 .chartlet-line{fill:none;stroke:var(--chartlet-accent);stroke-width:3;stroke-linecap:round;stroke-linejoin:round}#chartlet-55d7d182de2564d7 .chartlet-background{fill:var(--chartlet-background)}.chartlet-root{--chartlet-node:#eef3fd;--chartlet-lane:#f7f9fc;--chartlet-lane-head:#eef1f6;--chartlet-shadow:rgba(16,24,40,.09);--chartlet-role-blue:#2563eb;--chartlet-role-blue-fill:#eef3fd;--chartlet-role-green:#15803d;--chartlet-role-green-fill:#ecfdf3;--chartlet-role-amber:#b45309;--chartlet-role-amber-fill:#fff7e8;--chartlet-role-teal:#0f766e;--chartlet-role-teal-fill:#e9faf7;--chartlet-role-violet:#6d28d9;--chartlet-role-violet-fill:#f3efff;--chartlet-role-gray:#667085;--chartlet-role-gray-fill:#f7f8fa;--chartlet-role-red:#b42318;--chartlet-role-red-fill:#fef3f2}.chartlet-root.chartlet-theme-dark{--chartlet-node:#1a2436;--chartlet-lane:#121925;--chartlet-lane-head:#18212f;--chartlet-shadow:rgba(0,0,0,.45);--chartlet-role-blue:#7ea6ff;--chartlet-role-blue-fill:#1a2436;--chartlet-role-green:#4ade80;--chartlet-role-green-fill:#132a1d;--chartlet-role-amber:#fbbf24;--chartlet-role-amber-fill:#2b2210;--chartlet-role-teal:#2dd4bf;--chartlet-role-teal-fill:#0f2a27;--chartlet-role-violet:#b69cff;--chartlet-role-violet-fill:#231c38;--chartlet-role-gray:#9aa7bd;--chartlet-role-gray-fill:#161d29;--chartlet-role-red:#f97066;--chartlet-role-red-fill:#2d1616}#chartlet-55d7d182de2564d7 .chartlet-role-blue{fill:var(--chartlet-role-blue-fill);stroke:var(--chartlet-role-blue)}#chartlet-55d7d182de2564d7 .chartlet-role-green{fill:var(--chartlet-role-green-fill);stroke:var(--chartlet-role-green)}#chartlet-55d7d182de2564d7 .chartlet-role-amber{fill:var(--chartlet-role-amber-fill);stroke:var(--chartlet-role-amber)}#chartlet-55d7d182de2564d7 .chartlet-role-teal{fill:var(--chartlet-role-teal-fill);stroke:var(--chartlet-role-teal)}#chartlet-55d7d182de2564d7 .chartlet-role-violet{fill:var(--chartlet-role-violet-fill);stroke:var(--chartlet-role-violet)}#chartlet-55d7d182de2564d7 .chartlet-role-gray{fill:var(--chartlet-role-gray-fill);stroke:var(--chartlet-role-gray)}#chartlet-55d7d182de2564d7 .chartlet-role-red{fill:var(--chartlet-role-red-fill);stroke:var(--chartlet-role-red)}#chartlet-55d7d182de2564d7 .chartlet-diagram-rim{fill:none;stroke:var(--chartlet-role-teal);stroke-width:1.5}#chartlet-55d7d182de2564d7 .chartlet-diagram-shadow{fill:var(--chartlet-shadow);stroke:none;rx:7px}#chartlet-55d7d182de2564d7 .chartlet-diagram-chip{fill:var(--chartlet-background);stroke:var(--chartlet-grid);stroke-width:1;rx:4px}#chartlet-55d7d182de2564d7 .chartlet-diagram-chip-text{font-size:12px;fill:var(--chartlet-text)}#chartlet-55d7d182de2564d7 .chartlet-diagram-badge{fill:var(--chartlet-accent);stroke:var(--chartlet-background);stroke-width:2}#chartlet-55d7d182de2564d7 .chartlet-diagram-badge-text{font-size:10px;font-weight:700;fill:var(--chartlet-background)}#chartlet-55d7d182de2564d7 .chartlet-flow-node{stroke-width:1.5;stroke-linejoin:round;rx:7px}#chartlet-55d7d182de2564d7 .chartlet-flow-start{stroke-width:2}#chartlet-55d7d182de2564d7 .chartlet-flow-end{stroke-width:3}#chartlet-55d7d182de2564d7 .chartlet-flow-external{stroke-dasharray:5 3}#chartlet-55d7d182de2564d7 .chartlet-flow-inner{stroke:var(--chartlet-role-blue);stroke-width:1}#chartlet-55d7d182de2564d7 .chartlet-flow-label{font-size:13px;font-weight:600;fill:var(--chartlet-text)}#chartlet-55d7d182de2564d7 .chartlet-flow-sublabel{font-size:11px;fill:var(--chartlet-muted)}#chartlet-55d7d182de2564d7 .chartlet-flow-edge{fill:none;stroke:var(--chartlet-zero);stroke-width:1.4;stroke-linejoin:round}#chartlet-55d7d182de2564d7 .chartlet-flow-dashed{stroke-dasharray:5 4}#chartlet-55d7d182de2564d7 .chartlet-flow-dotted{stroke-dasharray:1 4;stroke-linecap:round}#chartlet-55d7d182de2564d7 .chartlet-flow-main{stroke:var(--chartlet-accent);stroke-width:2.2}#chartlet-55d7d182de2564d7 .chartlet-flow-head{fill:var(--chartlet-zero);stroke:var(--chartlet-zero);stroke-width:1;stroke-linejoin:round}#chartlet-55d7d182de2564d7 .chartlet-flow-main-head{fill:var(--chartlet-accent);stroke:var(--chartlet-accent)}#chartlet-55d7d182de2564d7 .chartlet-flow-lane{fill:var(--chartlet-lane);stroke:var(--chartlet-grid);stroke-width:1}#chartlet-55d7d182de2564d7 .chartlet-flow-lane-alt{fill:var(--chartlet-background)}#chartlet-55d7d182de2564d7 .chartlet-flow-lane-head{fill:var(--chartlet-lane-head);stroke:none}#chartlet-55d7d182de2564d7 .chartlet-flow-lane-label{font-size:11px;font-weight:650;fill:var(--chartlet-muted);letter-spacing:.04em}#chartlet-55d7d182de2564d7 .chartlet-flow-group{fill:var(--chartlet-accent);fill-opacity:.04;stroke:var(--chartlet-zero);stroke-width:1;stroke-dasharray:4 3;rx:10px}#chartlet-55d7d182de2564d7 .chartlet-flow-group-label{font-size:11px;font-weight:600;fill:var(--chartlet-muted)}#chartlet-55d7d182de2564d7 .chartlet-arch-head{fill:var(--chartlet-role-violet-fill);stroke:var(--chartlet-role-violet);stroke-width:1.5}#chartlet-55d7d182de2564d7 .chartlet-arch-dot{fill:var(--chartlet-role-blue);stroke:none}</style><text x="24" y="30" text-anchor="start" class="chartlet-title">Web shop on one cloud region</text><rect x="510.296" y="79.252" width="1117.777" height="373.495" class="chartlet-flow-group"/><text x="518.296" y="92.252" text-anchor="start" class="chartlet-flow-group-label">Cloud region eu-central-1</text><rect x="522.296" y="107.252" width="934.887" height="333.495" class="chartlet-flow-group"/><text x="530.296" y="120.252" text-anchor="start" class="chartlet-flow-group-label">Private network</text><rect x="1317.183" y="328.748" width="128" height="100" class="chartlet-flow-group"/><text x="1325.183" y="341.748" text-anchor="start" class="chartlet-flow-group-label">Data zone</text><polyline points="128,231.252 225.374,231.252" class="chartlet-flow-edge chartlet-flow-main"><title>Customer → Web shop: browses</title></polyline><polyline points="225.374,234.752 233.374,231.252 225.374,227.752 225.374,234.752" class="chartlet-flow-head chartlet-flow-main-head"/><polyline points="337.374,254.252 470.215,254.252 470.215,482.748 510.331,482.748" class="chartlet-flow-edge chartlet-flow-dashed"><title>Web shop → Content network: loads assets [HTTPS]</title></polyline><polyline points="510.331,486.248 518.331,482.748 510.331,479.248 510.331,486.248" class="chartlet-flow-head"/><polyline points="337.374,231.252 526.296,231.252" class="chartlet-flow-edge chartlet-flow-main"><title>Web shop → Shop API: calls [HTTPS/JSON]</title></polyline><polyline points="526.296,234.752 534.296,231.252 526.296,227.752 526.296,234.752" class="chartlet-flow-head chartlet-flow-main-head"/><polyline points="638.296,213.752 776.877,213.752 776.877,160.252 802.96,160.252" class="chartlet-flow-edge"><title>Shop API → Session cache: sessions [RESP]</title></polyline><polyline points="802.96,163.752 810.96,160.252 802.96,156.752 802.96,163.752" class="chartlet-flow-head"/><polyline points="638.296,248.752 776.877,248.752 776.877,311.252 812.995,311.252" class="chartlet-flow-edge"><title>Shop API → Sign-in: checks token [OIDC]</title></polyline><polyline points="812.995,314.752 820.995,311.252 812.995,307.752 812.995,314.752" class="chartlet-flow-head"/><polyline points="638.296,266.252 786.902,266.252 786.902,419.252 1036.261,419.252 1036.261,351.095 1283.072,351.095 1283.072,398.748 1321.183,398.748" class="chartlet-flow-edge"><title>Shop API → Orders: reads, writes [SQL/TLS]</title></polyline><polyline points="1321.183,402.248 1329.183,398.748 1321.183,395.248 1321.183,402.248" class="chartlet-flow-head"/><polyline points="638.296,231.252 816.91,231.252" class="chartlet-flow-edge chartlet-flow-main"><title>Shop API → Order events: publishes [AMQP]</title></polyline><polyline points="816.91,234.752 824.91,231.252 816.91,227.752 816.91,234.752" class="chartlet-flow-head chartlet-flow-main-head"/><polyline points="934.58,231.252 1052.319,231.252" class="chartlet-flow-edge chartlet-flow-main"><title>Order events → Order worker: delivers</title></polyline><polyline points="1052.319,234.752 1060.319,231.252 1052.319,227.752 1052.319,234.752" class="chartlet-flow-head chartlet-flow-main-head"/><polyline points="1174.409,231.252 1648.17,231.252" class="chartlet-flow-edge chartlet-flow-main"><title>Order worker → Payment provider: charges [HTTPS]</title></polyline><polyline points="1648.17,234.752 1656.17,231.252 1648.17,227.752 1648.17,234.752" class="chartlet-flow-head chartlet-flow-main-head"/><polyline points="1174.409,244.252 1283.072,244.252 1283.072,252.748 1471.275,252.748 1471.275,302.252 1487.333,302.252" class="chartlet-flow-edge"><title>Order worker → Invoices: stores PDF [S3 API]</title></polyline><polyline points="1487.333,305.752 1495.333,302.252 1487.333,298.752 1487.333,305.752" class="chartlet-flow-head"/><polyline points="1174.409,257.252 1293.096,257.252 1293.096,374.748 1321.183,374.748" class="chartlet-flow-edge"><title>Order worker → Orders: updates [SQL/TLS]</title></polyline><polyline points="1321.183,378.248 1329.183,374.748 1321.183,371.248 1321.183,378.248" class="chartlet-flow-head"/><rect x="132" y="206.252" width="61.12" height="21" class="chartlet-diagram-chip"/><text x="137" y="220.252" text-anchor="start" class="chartlet-diagram-chip-text">browses</text><rect x="341.374" y="258.252" width="84.64" height="36" class="chartlet-diagram-chip"/><text x="346.374" y="272.252" text-anchor="start" class="chartlet-diagram-chip-text">loads assets</text><text x="346.374" y="287.252" text-anchor="start" class="chartlet-diagram-chip-text">[HTTPS]</text><rect x="341.374" y="191.252" width="102.52" height="36" class="chartlet-diagram-chip"/><text x="346.374" y="205.252" text-anchor="start" class="chartlet-diagram-chip-text">calls</text><text x="346.374" y="220.252" text-anchor="start" class="chartlet-diagram-chip-text">[HTTPS/JSON]</text><rect x="642.296" y="173.752" width="60.64" height="36" class="chartlet-diagram-chip"/><text x="647.296" y="187.752" text-anchor="start" class="chartlet-diagram-chip-text">sessions</text><text x="647.296" y="202.752" text-anchor="start" class="chartlet-diagram-chip-text">[RESP]</text><rect x="642.296" y="270.252" width="87.76" height="36" class="chartlet-diagram-chip"/><text x="647.296" y="284.252" text-anchor="start" class="chartlet-diagram-chip-text">checks token</text><text x="647.296" y="299.252" text-anchor="start" class="chartlet-diagram-chip-text">[OIDC]</text><rect x="941.495" y="270.252" width="92.32" height="36" class="chartlet-diagram-chip"/><text x="946.495" y="284.252" text-anchor="start" class="chartlet-diagram-chip-text">reads, writes</text><text x="946.495" y="299.252" text-anchor="start" class="chartlet-diagram-chip-text">[SQL/TLS]</text><rect x="705.936" y="173.752" width="64.24" height="36" class="chartlet-diagram-chip"/><text x="710.936" y="187.752" text-anchor="start" class="chartlet-diagram-chip-text">publishes</text><text x="710.936" y="202.752" text-anchor="start" class="chartlet-diagram-chip-text">[AMQP]</text><rect x="938.58" y="206.252" width="57.52" height="21" class="chartlet-diagram-chip"/><text x="943.58" y="220.252" text-anchor="start" class="chartlet-diagram-chip-text">delivers</text><rect x="1178.409" y="191.252" width="63.64" height="36" class="chartlet-diagram-chip"/><text x="1183.409" y="205.252" text-anchor="start" class="chartlet-diagram-chip-text">charges</text><text x="1183.409" y="220.252" text-anchor="start" class="chartlet-diagram-chip-text">[HTTPS]</text><rect x="1178.409" y="261.252" width="78.28" height="36" class="chartlet-diagram-chip"/><text x="1183.409" y="275.252" text-anchor="start" class="chartlet-diagram-chip-text">stores PDF</text><text x="1183.409" y="290.252" text-anchor="start" class="chartlet-diagram-chip-text">[S3 API]</text><rect x="1259.689" y="261.252" width="78.4" height="36" class="chartlet-diagram-chip"/><text x="1264.689" y="275.252" text-anchor="start" class="chartlet-diagram-chip-text">updates</text><text x="1264.689" y="290.252" text-anchor="start" class="chartlet-diagram-chip-text">[SQL/TLS]</text><rect x="24" y="211.752" width="104" height="44" class="chartlet-diagram-shadow"/><rect x="24" y="209.252" width="104" height="44" class="chartlet-flow-node chartlet-role-violet"><title>Customer</title></rect><circle cx="76" cy="209.252" r="7" class="chartlet-arch-head"/><text x="76" y="238.752" text-anchor="middle" class="chartlet-flow-label">Customer</text><rect x="233.374" y="202.752" width="104" height="62" class="chartlet-diagram-shadow"/><rect x="233.374" y="200.252" width="104" height="62" class="chartlet-flow-node chartlet-role-blue"><title>Web shop – browser</title></rect><line x1="233.374" y1="212.252" x2="337.374" y2="212.252" class="chartlet-flow-inner"/><circle cx="241.374" cy="206.252" r="1.8" class="chartlet-arch-dot"/><circle cx="247.374" cy="206.252" r="1.8" class="chartlet-arch-dot"/><circle cx="253.374" cy="206.252" r="1.8" class="chartlet-arch-dot"/><text x="285.374" y="234.752" text-anchor="middle" class="chartlet-flow-label">Web shop</text><text x="285.374" y="248.752" text-anchor="middle" class="chartlet-flow-sublabel">browser</text><rect x="518.331" y="467.248" width="135.93" height="36" class="chartlet-diagram-shadow"/><rect x="518.331" y="464.748" width="135.93" height="36" class="chartlet-flow-node chartlet-flow-external chartlet-role-gray"><title>Content network</title></rect><text x="586.296" y="487.248" text-anchor="middle" class="chartlet-flow-label">Content network</text><rect x="534.296" y="190.752" width="104" height="86" class="chartlet-diagram-shadow"/><rect x="534.296" y="188.252" width="104" height="86" class="chartlet-flow-node chartlet-role-blue"><title>Shop API – Node.js</title></rect><text x="586.296" y="228.752" text-anchor="middle" class="chartlet-flow-label">Shop API</text><text x="586.296" y="242.752" text-anchor="middle" class="chartlet-flow-sublabel">Node.js</text><polyline points="822.96,137.752 936.53,137.752 948.53,162.752 936.53,187.752 822.96,187.752 810.96,162.752 822.96,137.752" class="chartlet-diagram-shadow"/><polyline points="822.96,135.252 936.53,135.252 948.53,160.252 936.53,185.252 822.96,185.252 810.96,160.252 822.96,135.252" class="chartlet-flow-node chartlet-role-amber"><title>Session cache – Redis</title></polyline><text x="879.745" y="157.752" text-anchor="middle" class="chartlet-flow-label">Session cache</text><text x="879.745" y="171.752" text-anchor="middle" class="chartlet-flow-sublabel">Redis</text><rect x="828.91" y="211.752" width="109.67" height="36" class="chartlet-diagram-shadow"/><rect x="828.91" y="209.252" width="109.67" height="36" class="chartlet-flow-node chartlet-role-violet"/><rect x="824.91" y="215.752" width="109.67" height="36" class="chartlet-diagram-shadow"/><rect x="824.91" y="213.252" width="109.67" height="36" class="chartlet-flow-node chartlet-role-violet"><title>Order events</title></rect><text x="879.745" y="235.752" text-anchor="middle" class="chartlet-flow-label">Order events</text><rect x="1060.319" y="199.752" width="114.09" height="68" class="chartlet-diagram-shadow"/><rect x="1060.319" y="197.252" width="114.09" height="68" class="chartlet-flow-node chartlet-role-blue"><title>Order worker</title></rect><text x="1117.364" y="235.752" text-anchor="middle" class="chartlet-flow-label">Order worker</text><polyline points="1329.183,364.248 1329.183,414.248 1330.955,415.542 1336.15,416.748 1344.414,417.783 1355.183,418.578 1367.725,419.077 1381.183,419.248 1394.642,419.077 1407.183,418.578 1417.953,417.783 1426.216,416.748 1431.411,415.542 1433.183,414.248 1433.183,364.248 1431.411,362.953 1426.216,361.748 1417.953,360.712 1407.183,359.917 1394.642,359.418 1381.183,359.248 1367.725,359.418 1355.183,359.917 1344.414,360.712 1336.15,361.748 1330.955,362.953 1329.183,364.248 1329.183,364.248" class="chartlet-diagram-shadow"/><polyline points="1329.183,361.748 1329.183,411.748 1330.955,413.042 1336.15,414.248 1344.414,415.283 1355.183,416.078 1367.725,416.577 1381.183,416.748 1394.642,416.577 1407.183,416.078 1417.953,415.283 1426.216,414.248 1431.411,413.042 1433.183,411.748 1433.183,361.748 1431.411,360.453 1426.216,359.248 1417.953,358.212 1407.183,357.417 1394.642,356.918 1381.183,356.748 1367.725,356.918 1355.183,357.417 1344.414,358.212 1336.15,359.248 1330.955,360.453 1329.183,361.748 1329.183,361.748" class="chartlet-flow-node chartlet-role-teal"><title>Orders – Postgres</title></polyline><polyline points="1329.183,361.748 1330.955,363.042 1336.15,364.248 1344.414,365.283 1355.183,366.078 1367.725,366.577 1381.183,366.748 1394.642,366.577 1407.183,366.078 1417.953,365.283 1426.216,364.248 1431.411,363.042 1433.183,361.748" class="chartlet-diagram-rim"/><text x="1381.183" y="387.248" text-anchor="middle" class="chartlet-flow-label">Orders</text><text x="1381.183" y="401.248" text-anchor="middle" class="chartlet-flow-sublabel">Postgres</text><polyline points="1495.333,277.752 1616.073,277.752 1608.073,331.752 1503.333,331.752 1495.333,277.752" class="chartlet-diagram-shadow"/><polyline points="1495.333,275.252 1616.073,275.252 1608.073,329.252 1503.333,329.252 1495.333,275.252" class="chartlet-flow-node chartlet-role-teal"><title>Invoices – object storage</title></polyline><text x="1555.703" y="299.752" text-anchor="middle" class="chartlet-flow-label">Invoices</text><text x="1555.703" y="313.752" text-anchor="middle" class="chartlet-flow-sublabel">object storage</text><rect x="1656.17" y="215.752" width="139.83" height="36" class="chartlet-diagram-shadow"/><rect x="1656.17" y="213.252" width="139.83" height="36" class="chartlet-flow-node chartlet-flow-external chartlet-role-gray"><title>Payment provider</title></rect><text x="1726.085" y="235.752" text-anchor="middle" class="chartlet-flow-label">Payment provider</text><polyline points="820.995,279.752 938.495,279.752 938.495,320.552 879.745,347.752 820.995,320.552 820.995,279.752" class="chartlet-diagram-shadow"/><polyline points="820.995,277.252 938.495,277.252 938.495,318.052 879.745,345.252 820.995,318.052 820.995,277.252" class="chartlet-flow-node chartlet-role-red"><title>Sign-in – identity provider</title></polyline><text x="879.745" y="302.752" text-anchor="middle" class="chartlet-flow-label">Sign-in</text><text x="879.745" y="316.752" text-anchor="middle" class="chartlet-flow-sublabel">identity provider</text></svg>