<svg xmlns="http://www.w3.org/2000/svg" width="360" height="760" viewBox="0 0 360 760" id="chartlet-3654a83d81a20e1b-m" role="img" aria-labelledby="chartlet-3654a83d81a20e1b-m-title chartlet-3654a83d81a20e1b-m-description" class="chartlet-root chartlet-multiples"><title id="chartlet-3654a83d81a20e1b-m-title">Which cause matches the warming?</title><desc id="chartlet-3654a83d81a20e1b-m-description">Small multiples of 3 panels (Sun, Volcanoes, Greenhouse gases) with a shared value axis, each from 1900 to 2020, showing Measured, Model. Notes: Sun: Does not match: solar activity has not risen since 1960; Volcanoes: Does not match: only short cooling; Greenhouse gases: Matches the measured warming. Highest: 1.3 (Greenhouse gases · Model in 2020). Lowest: −0.1 (Volcanoes · Model in 1900, Volcanoes · Model in 1910, Volcanoes · Model in 1920, Volcanoes · Model in 1930, Volcanoes · Model in 1940, Volcanoes · Model in 1950, Volcanoes · Model in 1960, Volcanoes · Model in 1970, Volcanoes · Model in 1980, Volcanoes · Model in 1990, Volcanoes · Model in 2000, Volcanoes · Model in 2010, Volcanoes · Model in 2020).</desc><style>.chartlet-root{--chartlet-text:#172033;--chartlet-muted:#344054;--chartlet-grid:#d9dee8;--chartlet-zero:#667085;--chartlet-accent:#2563eb;--chartlet-background:#fff;--chartlet-color-1:#2563eb;--chartlet-color-2:#c2410c;--chartlet-color-3:#475569;--chartlet-color-4:#111827;max-width:100%;height:auto;font-family:Inter,ui-sans-serif,system-ui,sans-serif;color:var(--chartlet-text)}#chartlet-3654a83d81a20e1b-m .chartlet-title{font-size:22px;font-weight:650;fill:var(--chartlet-text)}#chartlet-3654a83d81a20e1b-m .chartlet-label,#chartlet-3654a83d81a20e1b-m .chartlet-tick,#chartlet-3654a83d81a20e1b-m .chartlet-value,#chartlet-3654a83d81a20e1b-m .chartlet-value-inverse,#chartlet-3654a83d81a20e1b-m .chartlet-axis-title{font-size:12px;fill:var(--chartlet-muted)}#chartlet-3654a83d81a20e1b-m .chartlet-value,#chartlet-3654a83d81a20e1b-m .chartlet-value-inverse{font-weight:600}#chartlet-3654a83d81a20e1b-m .chartlet-value{fill:var(--chartlet-text)}#chartlet-3654a83d81a20e1b-m .chartlet-value-inverse{fill:var(--chartlet-background)}#chartlet-3654a83d81a20e1b-m .chartlet-axis-title{font-weight:600}#chartlet-3654a83d81a20e1b-m .chartlet-grid{stroke:var(--chartlet-grid);stroke-width:1}#chartlet-3654a83d81a20e1b-m .chartlet-zero{stroke:var(--chartlet-zero);stroke-width:1.5}#chartlet-3654a83d81a20e1b-m .chartlet-bar,#chartlet-3654a83d81a20e1b-m .chartlet-point{fill:var(--chartlet-accent)}#chartlet-3654a83d81a20e1b-m .chartlet-line{fill:none;stroke:var(--chartlet-accent);stroke-width:3;stroke-linecap:round;stroke-linejoin:round}#chartlet-3654a83d81a20e1b-m .chartlet-background{fill:var(--chartlet-background)}#chartlet-3654a83d81a20e1b-m .chartlet-legend{font-size:12px;fill:var(--chartlet-muted)}#chartlet-3654a83d81a20e1b-m .chartlet-line-series-1{stroke:var(--chartlet-color-1)}#chartlet-3654a83d81a20e1b-m .chartlet-line-series-2{stroke:var(--chartlet-color-2)}#chartlet-3654a83d81a20e1b-m .chartlet-line-series-3{stroke:var(--chartlet-color-3)}#chartlet-3654a83d81a20e1b-m .chartlet-line-series-4{stroke:var(--chartlet-color-4)}#chartlet-3654a83d81a20e1b-m .chartlet-point-series-1{fill:var(--chartlet-color-1)}#chartlet-3654a83d81a20e1b-m .chartlet-hit{fill:transparent;stroke:none}#chartlet-3654a83d81a20e1b-m .chartlet-band{stroke:none;fill-opacity:.18}#chartlet-3654a83d81a20e1b-m .chartlet-band-series-1{fill:var(--chartlet-color-1)}#chartlet-3654a83d81a20e1b-m .chartlet-band-series-2{fill:var(--chartlet-color-2)}#chartlet-3654a83d81a20e1b-m .chartlet-band-series-3{fill:var(--chartlet-color-3)}#chartlet-3654a83d81a20e1b-m .chartlet-band-series-4{fill:var(--chartlet-color-4)}#chartlet-3654a83d81a20e1b-m .chartlet-hatch{stroke:none}#chartlet-3654a83d81a20e1b-m .chartlet-hatch-line{stroke-width:1.2;opacity:.75}#chartlet-3654a83d81a20e1b-m .chartlet-line-modeled{stroke-dasharray:7 5}#chartlet-3654a83d81a20e1b-m .chartlet-line-thin{stroke-width:1}#chartlet-3654a83d81a20e1b-m .chartlet-point-series-2{fill:var(--chartlet-color-2)}#chartlet-3654a83d81a20e1b-m .chartlet-point-series-3{fill:var(--chartlet-color-3)}#chartlet-3654a83d81a20e1b-m .chartlet-point-series-4{fill:var(--chartlet-color-4)}#chartlet-3654a83d81a20e1b-m .chartlet-rule{fill:none;stroke:var(--chartlet-zero);stroke-width:1.5;stroke-dasharray:5 4}#chartlet-3654a83d81a20e1b-m .chartlet-rule-label{font-size:12px;font-weight:600;fill:var(--chartlet-text);paint-order:stroke;stroke:var(--chartlet-background);stroke-width:3px;stroke-linejoin:round}#chartlet-3654a83d81a20e1b-m.chartlet-multiples .chartlet-line{stroke-width:2}#chartlet-3654a83d81a20e1b-m .chartlet-panel-title{font-size:13px;font-weight:650;fill:var(--chartlet-text)}#chartlet-3654a83d81a20e1b-m .chartlet-panel-note{font-size:12px;fill:var(--chartlet-muted)}#chartlet-3654a83d81a20e1b-m .chartlet-title-small{font-size:18px}</style><text x="16" y="30" text-anchor="start" class="chartlet-title chartlet-title-small">Which cause matches the warming?</text><polyline points="16,51 40,51" class="chartlet-line chartlet-line-series-1"/><text x="48" y="55" text-anchor="start" class="chartlet-legend">Measured</text><polyline points="125.84,51 149.84,51" class="chartlet-line chartlet-line-series-2"/><text x="157.84" y="55" text-anchor="start" class="chartlet-legend">Model</text><text x="16" y="80" text-anchor="start" class="chartlet-axis-title">°C</text><text x="60" y="116" text-anchor="start" class="chartlet-panel-title">Sun</text><text x="60" y="131" text-anchor="start" class="chartlet-panel-note">Does not match: solar activity has not risen</text><text x="60" y="146" text-anchor="start" class="chartlet-panel-note">since 1960</text><line x1="60" y1="286.667" x2="332" y2="286.667" class="chartlet-grid"/><text x="50" y="290.667" text-anchor="end" class="chartlet-tick">−0.5</text><line x1="60" y1="254.5" x2="332" y2="254.5" class="chartlet-zero"/><text x="50" y="258.5" text-anchor="end" class="chartlet-tick">0.0</text><line x1="60" y1="222.333" x2="332" y2="222.333" class="chartlet-grid"/><text x="50" y="226.333" text-anchor="end" class="chartlet-tick">0.5</text><line x1="60" y1="190.167" x2="332" y2="190.167" class="chartlet-grid"/><text x="50" y="194.167" text-anchor="end" class="chartlet-tick">1.0</text><line x1="60" y1="158" x2="332" y2="158" class="chartlet-grid"/><text x="50" y="162" text-anchor="end" class="chartlet-tick">1.5</text><line x1="66" y1="158" x2="66" y2="286.667" class="chartlet-grid"/><text x="66" y="310.667" text-anchor="middle" class="chartlet-tick">1900</text><line x1="174.333" y1="158" x2="174.333" y2="286.667" class="chartlet-grid"/><text x="174.333" y="310.667" text-anchor="middle" class="chartlet-tick">1950</text><line x1="282.666" y1="158" x2="282.666" y2="286.667" class="chartlet-grid"/><text x="282.666" y="310.667" text-anchor="middle" class="chartlet-tick">2000</text><polyline points="66,257.717 87.664,244.85 109.328,244.85 130.999,231.983 152.663,231.983 174.333,219.117 195.997,219.117 217.667,206.25 239.331,206.25 261.001,193.383 282.666,193.383 304.336,180.517 326,180.517" class="chartlet-line chartlet-line-series-1"/><circle cx="66" cy="257.717" r="2.5" class="chartlet-point chartlet-point-series-1"><title>1900 – Sun · Measured: −0.05</title></circle><circle cx="87.664" cy="244.85" r="2.5" class="chartlet-point chartlet-point-series-1"><title>1910 – Sun · Measured: 0.15</title></circle><circle cx="109.328" cy="244.85" r="2.5" class="chartlet-point chartlet-point-series-1"><title>1920 – Sun · Measured: 0.15</title></circle><circle cx="130.999" cy="231.983" r="2.5" class="chartlet-point chartlet-point-series-1"><title>1930 – Sun · Measured: 0.35</title></circle><circle cx="152.663" cy="231.983" r="2.5" class="chartlet-point chartlet-point-series-1"><title>1940 – Sun · Measured: 0.35</title></circle><circle cx="174.333" cy="219.117" r="2.5" class="chartlet-point chartlet-point-series-1"><title>1950 – Sun · Measured: 0.55</title></circle><circle cx="195.997" cy="219.117" r="2.5" class="chartlet-point chartlet-point-series-1"><title>1960 – Sun · Measured: 0.55</title></circle><circle cx="217.667" cy="206.25" r="2.5" class="chartlet-point chartlet-point-series-1"><title>1970 – Sun · Measured: 0.75</title></circle><circle cx="239.331" cy="206.25" r="2.5" class="chartlet-point chartlet-point-series-1"><title>1980 – Sun · Measured: 0.75</title></circle><circle cx="261.001" cy="193.383" r="2.5" class="chartlet-point chartlet-point-series-1"><title>1990 – Sun · Measured: 0.95</title></circle><circle cx="282.666" cy="193.383" r="2.5" class="chartlet-point chartlet-point-series-1"><title>2000 – Sun · Measured: 0.95</title></circle><circle cx="304.336" cy="180.517" r="2.5" class="chartlet-point chartlet-point-series-1"><title>2010 – Sun · Measured: 1.15</title></circle><circle cx="326" cy="180.517" r="2.5" class="chartlet-point chartlet-point-series-1"><title>2020 – Sun · Measured: 1.15</title></circle><polyline points="66,248.067 87.664,248.067 109.328,248.067 130.999,248.067 152.663,248.067 174.333,248.067 195.997,251.283 217.667,251.283 239.331,251.283 261.001,251.283 282.666,251.283 304.336,251.283 326,251.283" class="chartlet-line chartlet-line-series-2"/><circle cx="66" cy="248.067" r="2.5" class="chartlet-point chartlet-point-series-2"><title>1900 – Sun · Model: 0.1</title></circle><circle cx="87.664" cy="248.067" r="2.5" class="chartlet-point chartlet-point-series-2"><title>1910 – Sun · Model: 0.1</title></circle><circle cx="109.328" cy="248.067" r="2.5" class="chartlet-point chartlet-point-series-2"><title>1920 – Sun · Model: 0.1</title></circle><circle cx="130.999" cy="248.067" r="2.5" class="chartlet-point chartlet-point-series-2"><title>1930 – Sun · Model: 0.1</title></circle><circle cx="152.663" cy="248.067" r="2.5" class="chartlet-point chartlet-point-series-2"><title>1940 – Sun · Model: 0.1</title></circle><circle cx="174.333" cy="248.067" r="2.5" class="chartlet-point chartlet-point-series-2"><title>1950 – Sun · Model: 0.1</title></circle><circle cx="195.997" cy="251.283" r="2.5" class="chartlet-point chartlet-point-series-2"><title>1960 – Sun · Model: 0.05</title></circle><circle cx="217.667" cy="251.283" r="2.5" class="chartlet-point chartlet-point-series-2"><title>1970 – Sun · Model: 0.05</title></circle><circle cx="239.331" cy="251.283" r="2.5" class="chartlet-point chartlet-point-series-2"><title>1980 – Sun · Model: 0.05</title></circle><circle cx="261.001" cy="251.283" r="2.5" class="chartlet-point chartlet-point-series-2"><title>1990 – Sun · Model: 0.05</title></circle><circle cx="282.666" cy="251.283" r="2.5" class="chartlet-point chartlet-point-series-2"><title>2000 – Sun · Model: 0.05</title></circle><circle cx="304.336" cy="251.283" r="2.5" class="chartlet-point chartlet-point-series-2"><title>2010 – Sun · Model: 0.05</title></circle><circle cx="326" cy="251.283" r="2.5" class="chartlet-point chartlet-point-series-2"><title>2020 – Sun · Model: 0.05</title></circle><text x="60" y="332.667" text-anchor="start" class="chartlet-panel-title">Volcanoes</text><text x="60" y="347.667" text-anchor="start" class="chartlet-panel-note">Does not match: only short cooling</text><line x1="60" y1="503.333" x2="332" y2="503.333" class="chartlet-grid"/><text x="50" y="507.333" text-anchor="end" class="chartlet-tick">−0.5</text><line x1="60" y1="471.167" x2="332" y2="471.167" class="chartlet-zero"/><text x="50" y="475.167" text-anchor="end" class="chartlet-tick">0.0</text><line x1="60" y1="439" x2="332" y2="439" class="chartlet-grid"/><text x="50" y="443" text-anchor="end" class="chartlet-tick">0.5</text><line x1="60" y1="406.833" x2="332" y2="406.833" class="chartlet-grid"/><text x="50" y="410.833" text-anchor="end" class="chartlet-tick">1.0</text><line x1="60" y1="374.667" x2="332" y2="374.667" class="chartlet-grid"/><text x="50" y="378.667" text-anchor="end" class="chartlet-tick">1.5</text><line x1="66" y1="374.667" x2="66" y2="503.333" class="chartlet-grid"/><text x="66" y="527.333" text-anchor="middle" class="chartlet-tick">1900</text><line x1="174.333" y1="374.667" x2="174.333" y2="503.333" class="chartlet-grid"/><text x="174.333" y="527.333" text-anchor="middle" class="chartlet-tick">1950</text><line x1="282.666" y1="374.667" x2="282.666" y2="503.333" class="chartlet-grid"/><text x="282.666" y="527.333" text-anchor="middle" class="chartlet-tick">2000</text><polyline points="66,474.383 87.664,461.517 109.328,461.517 130.999,448.65 152.663,448.65 174.333,435.783 195.997,435.783 217.667,422.917 239.331,422.917 261.001,410.05 282.666,410.05 304.336,397.183 326,397.183" class="chartlet-line chartlet-line-series-1"/><circle cx="66" cy="474.383" r="2.5" class="chartlet-point chartlet-point-series-1"><title>1900 – Volcanoes · Measured: −0.05</title></circle><circle cx="87.664" cy="461.517" r="2.5" class="chartlet-point chartlet-point-series-1"><title>1910 – Volcanoes · Measured: 0.15</title></circle><circle cx="109.328" cy="461.517" r="2.5" class="chartlet-point chartlet-point-series-1"><title>1920 – Volcanoes · Measured: 0.15</title></circle><circle cx="130.999" cy="448.65" r="2.5" class="chartlet-point chartlet-point-series-1"><title>1930 – Volcanoes · Measured: 0.35</title></circle><circle cx="152.663" cy="448.65" r="2.5" class="chartlet-point chartlet-point-series-1"><title>1940 – Volcanoes · Measured: 0.35</title></circle><circle cx="174.333" cy="435.783" r="2.5" class="chartlet-point chartlet-point-series-1"><title>1950 – Volcanoes · Measured: 0.55</title></circle><circle cx="195.997" cy="435.783" r="2.5" class="chartlet-point chartlet-point-series-1"><title>1960 – Volcanoes · Measured: 0.55</title></circle><circle cx="217.667" cy="422.917" r="2.5" class="chartlet-point chartlet-point-series-1"><title>1970 – Volcanoes · Measured: 0.75</title></circle><circle cx="239.331" cy="422.917" r="2.5" class="chartlet-point chartlet-point-series-1"><title>1980 – Volcanoes · Measured: 0.75</title></circle><circle cx="261.001" cy="410.05" r="2.5" class="chartlet-point chartlet-point-series-1"><title>1990 – Volcanoes · Measured: 0.95</title></circle><circle cx="282.666" cy="410.05" r="2.5" class="chartlet-point chartlet-point-series-1"><title>2000 – Volcanoes · Measured: 0.95</title></circle><circle cx="304.336" cy="397.183" r="2.5" class="chartlet-point chartlet-point-series-1"><title>2010 – Volcanoes · Measured: 1.15</title></circle><circle cx="326" cy="397.183" r="2.5" class="chartlet-point chartlet-point-series-1"><title>2020 – Volcanoes · Measured: 1.15</title></circle><polyline points="66,477.6 87.664,477.6 109.328,477.6 130.999,477.6 152.663,477.6 174.333,477.6 195.997,477.6 217.667,477.6 239.331,477.6 261.001,477.6 282.666,477.6 304.336,477.6 326,477.6" class="chartlet-line chartlet-line-series-2"/><circle cx="66" cy="477.6" r="2.5" class="chartlet-point chartlet-point-series-2"><title>1900 – Volcanoes · Model: −0.1</title></circle><circle cx="87.664" cy="477.6" r="2.5" class="chartlet-point chartlet-point-series-2"><title>1910 – Volcanoes · Model: −0.1</title></circle><circle cx="109.328" cy="477.6" r="2.5" class="chartlet-point chartlet-point-series-2"><title>1920 – Volcanoes · Model: −0.1</title></circle><circle cx="130.999" cy="477.6" r="2.5" class="chartlet-point chartlet-point-series-2"><title>1930 – Volcanoes · Model: −0.1</title></circle><circle cx="152.663" cy="477.6" r="2.5" class="chartlet-point chartlet-point-series-2"><title>1940 – Volcanoes · Model: −0.1</title></circle><circle cx="174.333" cy="477.6" r="2.5" class="chartlet-point chartlet-point-series-2"><title>1950 – Volcanoes · Model: −0.1</title></circle><circle cx="195.997" cy="477.6" r="2.5" class="chartlet-point chartlet-point-series-2"><title>1960 – Volcanoes · Model: −0.1</title></circle><circle cx="217.667" cy="477.6" r="2.5" class="chartlet-point chartlet-point-series-2"><title>1970 – Volcanoes · Model: −0.1</title></circle><circle cx="239.331" cy="477.6" r="2.5" class="chartlet-point chartlet-point-series-2"><title>1980 – Volcanoes · Model: −0.1</title></circle><circle cx="261.001" cy="477.6" r="2.5" class="chartlet-point chartlet-point-series-2"><title>1990 – Volcanoes · Model: −0.1</title></circle><circle cx="282.666" cy="477.6" r="2.5" class="chartlet-point chartlet-point-series-2"><title>2000 – Volcanoes · Model: −0.1</title></circle><circle cx="304.336" cy="477.6" r="2.5" class="chartlet-point chartlet-point-series-2"><title>2010 – Volcanoes · Model: −0.1</title></circle><circle cx="326" cy="477.6" r="2.5" class="chartlet-point chartlet-point-series-2"><title>2020 – Volcanoes · Model: −0.1</title></circle><text x="60" y="549.333" text-anchor="start" class="chartlet-panel-title">Greenhouse gases</text><text x="60" y="564.333" text-anchor="start" class="chartlet-panel-note">Matches the measured warming</text><line x1="60" y1="720" x2="332" y2="720" class="chartlet-grid"/><text x="50" y="724" text-anchor="end" class="chartlet-tick">−0.5</text><line x1="60" y1="687.833" x2="332" y2="687.833" class="chartlet-zero"/><text x="50" y="691.833" text-anchor="end" class="chartlet-tick">0.0</text><line x1="60" y1="655.667" x2="332" y2="655.667" class="chartlet-grid"/><text x="50" y="659.667" text-anchor="end" class="chartlet-tick">0.5</text><line x1="60" y1="623.5" x2="332" y2="623.5" class="chartlet-grid"/><text x="50" y="627.5" text-anchor="end" class="chartlet-tick">1.0</text><line x1="60" y1="591.333" x2="332" y2="591.333" class="chartlet-grid"/><text x="50" y="595.333" text-anchor="end" class="chartlet-tick">1.5</text><line x1="66" y1="591.333" x2="66" y2="720" class="chartlet-grid"/><text x="66" y="744" text-anchor="middle" class="chartlet-tick">1900</text><line x1="174.333" y1="591.333" x2="174.333" y2="720" class="chartlet-grid"/><text x="174.333" y="744" text-anchor="middle" class="chartlet-tick">1950</text><line x1="282.666" y1="591.333" x2="282.666" y2="720" class="chartlet-grid"/><text x="282.666" y="744" text-anchor="middle" class="chartlet-tick">2000</text><polyline points="66,691.05 87.664,678.183 109.328,678.183 130.999,665.317 152.663,665.317 174.333,652.45 195.997,652.45 217.667,639.583 239.331,639.583 261.001,626.717 282.666,626.717 304.336,613.85 326,613.85" class="chartlet-line chartlet-line-series-1"/><circle cx="66" cy="691.05" r="2.5" class="chartlet-point chartlet-point-series-1"><title>1900 – Greenhouse gases · Measured: −0.05</title></circle><circle cx="87.664" cy="678.183" r="2.5" class="chartlet-point chartlet-point-series-1"><title>1910 – Greenhouse gases · Measured: 0.15</title></circle><circle cx="109.328" cy="678.183" r="2.5" class="chartlet-point chartlet-point-series-1"><title>1920 – Greenhouse gases · Measured: 0.15</title></circle><circle cx="130.999" cy="665.317" r="2.5" class="chartlet-point chartlet-point-series-1"><title>1930 – Greenhouse gases · Measured: 0.35</title></circle><circle cx="152.663" cy="665.317" r="2.5" class="chartlet-point chartlet-point-series-1"><title>1940 – Greenhouse gases · Measured: 0.35</title></circle><circle cx="174.333" cy="652.45" r="2.5" class="chartlet-point chartlet-point-series-1"><title>1950 – Greenhouse gases · Measured: 0.55</title></circle><circle cx="195.997" cy="652.45" r="2.5" class="chartlet-point chartlet-point-series-1"><title>1960 – Greenhouse gases · Measured: 0.55</title></circle><circle cx="217.667" cy="639.583" r="2.5" class="chartlet-point chartlet-point-series-1"><title>1970 – Greenhouse gases · Measured: 0.75</title></circle><circle cx="239.331" cy="639.583" r="2.5" class="chartlet-point chartlet-point-series-1"><title>1980 – Greenhouse gases · Measured: 0.75</title></circle><circle cx="261.001" cy="626.717" r="2.5" class="chartlet-point chartlet-point-series-1"><title>1990 – Greenhouse gases · Measured: 0.95</title></circle><circle cx="282.666" cy="626.717" r="2.5" class="chartlet-point chartlet-point-series-1"><title>2000 – Greenhouse gases · Measured: 0.95</title></circle><circle cx="304.336" cy="613.85" r="2.5" class="chartlet-point chartlet-point-series-1"><title>2010 – Greenhouse gases · Measured: 1.15</title></circle><circle cx="326" cy="613.85" r="2.5" class="chartlet-point chartlet-point-series-1"><title>2020 – Greenhouse gases · Measured: 1.15</title></circle><polyline points="66,687.833 87.664,680.757 109.328,673.68 130.999,666.603 152.663,660.17 174.333,653.093 195.997,646.017 217.667,638.94 239.331,631.863 261.001,624.787 282.666,618.353 304.336,611.277 326,604.2" class="chartlet-line chartlet-line-series-2"/><circle cx="66" cy="687.833" r="2.5" class="chartlet-point chartlet-point-series-2"><title>1900 – Greenhouse gases · Model: 0</title></circle><circle cx="87.664" cy="680.757" r="2.5" class="chartlet-point chartlet-point-series-2"><title>1910 – Greenhouse gases · Model: 0.11</title></circle><circle cx="109.328" cy="673.68" r="2.5" class="chartlet-point chartlet-point-series-2"><title>1920 – Greenhouse gases · Model: 0.22</title></circle><circle cx="130.999" cy="666.603" r="2.5" class="chartlet-point chartlet-point-series-2"><title>1930 – Greenhouse gases · Model: 0.33</title></circle><circle cx="152.663" cy="660.17" r="2.5" class="chartlet-point chartlet-point-series-2"><title>1940 – Greenhouse gases · Model: 0.43</title></circle><circle cx="174.333" cy="653.093" r="2.5" class="chartlet-point chartlet-point-series-2"><title>1950 – Greenhouse gases · Model: 0.54</title></circle><circle cx="195.997" cy="646.017" r="2.5" class="chartlet-point chartlet-point-series-2"><title>1960 – Greenhouse gases · Model: 0.65</title></circle><circle cx="217.667" cy="638.94" r="2.5" class="chartlet-point chartlet-point-series-2"><title>1970 – Greenhouse gases · Model: 0.76</title></circle><circle cx="239.331" cy="631.863" r="2.5" class="chartlet-point chartlet-point-series-2"><title>1980 – Greenhouse gases · Model: 0.87</title></circle><circle cx="261.001" cy="624.787" r="2.5" class="chartlet-point chartlet-point-series-2"><title>1990 – Greenhouse gases · Model: 0.98</title></circle><circle cx="282.666" cy="618.353" r="2.5" class="chartlet-point chartlet-point-series-2"><title>2000 – Greenhouse gases · Model: 1.08</title></circle><circle cx="304.336" cy="611.277" r="2.5" class="chartlet-point chartlet-point-series-2"><title>2010 – Greenhouse gases · Model: 1.19</title></circle><circle cx="326" cy="604.2" r="2.5" class="chartlet-point chartlet-point-series-2"><title>2020 – Greenhouse gases · Model: 1.3</title></circle></svg>